<svg width="151" height="151" viewBox="0 0 151 151" fill="none" xmlns="http://www.w3.org/2000/svg">
<rect x="0.8302" y="0.753571" width="150" height="150" rx="75" fill="#E2A76F"/>
<path d="M77.074 23.1392L78.0183 13.2536L82.0628 13.6415C82.7486 13.7073 83.3161 13.871 83.7651 14.1326C84.2142 14.3942 84.5377 14.7293 84.7357 15.1379C84.944 15.5379 85.0243 15.9874 84.9766 16.4864C84.929 16.9854 84.7809 17.394 84.5325 17.7122C84.284 18.0304 83.9723 18.2665 83.5973 18.4206C83.2326 18.5661 82.8375 18.6327 82.412 18.6204L82.6524 18.4867C83.1015 18.5488 83.4891 18.7095 83.8151 18.9688C84.1514 19.2196 84.4007 19.538 84.5629 19.9241C84.7345 20.3111 84.7997 20.7212 84.7583 21.1542C84.7079 21.6815 84.5366 22.1353 84.2443 22.5158C83.9519 22.8964 83.555 23.1813 83.0533 23.3707C82.5526 23.5507 81.9547 23.6074 81.2594 23.5407L77.074 23.1392ZM79.1249 21.7682L81.0978 21.9575C81.6145 22.007 82.025 21.9277 82.3294 21.7193C82.6337 21.511 82.807 21.1856 82.8492 20.7431C82.8915 20.3006 82.7787 19.943 82.5109 19.6702C82.2439 19.3881 81.8521 19.2223 81.3354 19.1727L79.3906 18.9861L79.1249 21.7682ZM79.5269 17.5598L81.3589 17.7355C81.8568 17.7833 82.2434 17.7064 82.5186 17.5047C82.8033 17.304 82.9654 16.9965 83.0049 16.5823C83.0436 16.1774 82.9422 15.8494 82.7007 15.5982C82.4695 15.3385 82.1003 15.1843 81.593 15.1357L79.7751 14.9613L79.5269 17.5598Z" fill="white"/>
<path d="M90.1554 25.4267C89.5035 25.2348 88.9587 24.9119 88.5213 24.4579C88.0955 23.9975 87.8071 23.4542 87.6561 22.8282C87.5169 22.1958 87.5496 21.5302 87.7543 20.8315C87.9644 20.1145 88.2973 19.5324 88.753 19.0849C89.2205 18.631 89.7607 18.3316 90.3736 18.1867C90.9892 18.0327 91.6231 18.0517 92.275 18.2435C92.9361 18.438 93.4795 18.7655 93.9052 19.226C94.3427 19.68 94.6311 20.2232 94.7704 20.8556C94.9214 21.4816 94.8932 22.1486 94.6857 22.8564C94.4783 23.5642 94.1409 24.1451 93.6735 24.599C93.2178 25.0464 92.6821 25.3472 92.0665 25.5011C91.4535 25.6461 90.8165 25.6212 90.1554 25.4267ZM90.6221 23.8341C90.93 23.9247 91.2229 23.932 91.5009 23.8561C91.788 23.7829 92.0433 23.6165 92.2669 23.357C92.4995 23.1002 92.681 22.7494 92.8113 22.3048C92.9416 21.8601 92.9768 21.4713 92.917 21.1382C92.8689 20.7988 92.7439 20.5205 92.542 20.3034C92.3517 20.0798 92.1072 19.9241 91.8084 19.8361C91.5186 19.7509 91.2289 19.7494 90.9392 19.8317C90.6521 19.905 90.3923 20.07 90.1596 20.3268C89.9387 20.5772 89.7631 20.9248 89.6328 21.3694C89.5025 21.8141 89.4614 22.2062 89.5095 22.5456C89.5666 22.8877 89.6916 23.166 89.8845 23.3805C90.0865 23.5976 90.3323 23.7488 90.6221 23.8341Z" fill="white"/>
<path d="M99.2971 29.0031C98.6928 28.6917 98.2184 28.2718 97.8741 27.7433C97.5425 27.2108 97.3613 26.6229 97.3306 25.9796C97.3126 25.3322 97.4698 24.6847 97.8022 24.037C98.1432 23.3726 98.5795 22.8636 99.1111 22.5101C99.6555 22.1525 100.242 21.9604 100.871 21.9338C101.505 21.8987 102.124 22.0369 102.728 22.3483C103.341 22.6641 103.813 23.0882 104.145 23.6207C104.489 24.1492 104.67 24.7371 104.688 25.3845C104.719 26.0278 104.566 26.6775 104.229 27.3335C103.893 27.9895 103.452 28.4964 102.908 28.8539C102.376 29.2074 101.793 29.4017 101.16 29.4368C100.531 29.4635 99.9097 29.3189 99.2971 29.0031ZM100.055 27.527C100.34 27.6741 100.626 27.7366 100.914 27.7145C101.209 27.6967 101.491 27.5815 101.76 27.3688C102.036 27.1605 102.28 26.8502 102.492 26.4381C102.703 26.026 102.811 25.6507 102.815 25.3124C102.831 24.9699 102.761 24.673 102.603 24.4217C102.459 24.1662 102.248 23.9671 101.971 23.8244C101.702 23.686 101.418 23.6299 101.118 23.656C100.822 23.6738 100.536 23.7869 100.259 23.9952C99.9952 24.1995 99.7575 24.5077 99.546 24.9198C99.3345 25.3319 99.2205 25.7092 99.2039 26.0517C99.1957 26.3984 99.2662 26.6953 99.4154 26.9424C99.5729 27.1937 99.786 27.3886 100.055 27.527Z" fill="white"/>
<path d="M108.726 34.8772L108.67 29.9141L112.799 28.9987L114.59 30.365L109.342 31.4426L110.259 30.2348L110.618 36.3208L108.726 34.8772ZM105.008 32.0416L111.182 23.9138L112.702 25.0739L106.529 33.2017L105.008 32.0416Z" fill="white"/>
<path d="M114.939 40.4926L125.053 37.4775L126.346 39.2188L120.551 48.0497L119.343 46.4222L123.946 39.6468L116.14 42.1087L114.939 40.4926ZM117.7 40.432L119.197 39.9524L122.206 44.0041L121.309 45.2918L117.7 40.432Z" fill="white"/>
<path d="M118.793 51.2424L128.081 46.8999L128.799 48.4427L127.991 49.0554C128.243 49.1045 128.49 49.1874 128.732 49.304C128.982 49.4166 129.214 49.5795 129.428 49.7926C129.654 50.0103 129.849 50.2949 130.013 50.6463C130.296 51.2549 130.396 51.8605 130.312 52.4633C130.228 53.0661 129.991 53.6203 129.602 54.1259C129.225 54.6361 128.711 55.0432 128.061 55.3471C127.411 55.651 126.766 55.7857 126.125 55.7514C125.493 55.713 124.923 55.5304 124.417 55.2035C123.911 54.8766 123.52 54.4175 123.245 53.8261C123.021 53.3461 122.913 52.8904 122.921 52.459C122.941 52.0322 123.053 51.6354 123.257 51.2686L119.601 52.978L118.793 51.2424ZM124.567 52.7069C124.727 53.0498 124.943 53.3138 125.217 53.4989C125.495 53.6926 125.808 53.7964 126.159 53.8101C126.509 53.8239 126.868 53.7448 127.235 53.5729C127.603 53.4009 127.894 53.1761 128.109 52.8984C128.332 52.6168 128.458 52.3071 128.488 51.9694C128.531 51.6363 128.473 51.2984 128.313 50.9555C128.158 50.6212 127.937 50.3592 127.65 50.1695C127.377 49.9844 127.063 49.8806 126.709 49.8583C126.359 49.8445 126 49.9236 125.632 50.0956C125.264 50.2675 124.969 50.4943 124.746 50.776C124.536 51.0622 124.413 51.3699 124.379 51.699C124.349 52.0367 124.411 52.3726 124.567 52.7069Z" fill="white"/>
<path d="M122.767 60.181L132.73 57.7675L133.129 59.4222L132.216 59.8624C132.453 59.9606 132.679 60.0909 132.893 60.2531C133.116 60.4131 133.311 60.6188 133.478 60.8701C133.657 61.1285 133.792 61.4461 133.883 61.823C134.04 62.4757 134.019 63.0892 133.817 63.6634C133.616 64.2376 133.274 64.7339 132.793 65.1522C132.322 65.5775 131.739 65.8746 131.042 66.0435C130.344 66.2124 129.685 66.2164 129.064 66.0556C128.452 65.8926 127.93 65.6006 127.498 65.1797C127.066 64.7589 126.774 64.2313 126.621 63.597C126.497 63.0821 126.481 62.6141 126.573 62.1927C126.677 61.7783 126.866 61.4116 127.138 61.0926L123.217 62.0426L122.767 60.181ZM128.138 62.7623C128.227 63.13 128.387 63.4318 128.619 63.6676C128.853 63.9126 129.14 64.0765 129.48 64.1595C129.821 64.2424 130.188 64.2361 130.582 64.1405C130.977 64.045 131.307 63.8824 131.572 63.6527C131.846 63.4209 132.031 63.1425 132.128 62.8175C132.235 62.4995 132.245 62.1566 132.156 61.7889C132.07 61.4304 131.905 61.1297 131.662 60.887C131.43 60.6512 131.143 60.4872 130.8 60.3951C130.46 60.3121 130.093 60.3184 129.698 60.414C129.304 60.5096 128.969 60.6733 128.695 60.9051C128.432 61.1439 128.252 61.4212 128.153 61.737C128.057 62.062 128.052 62.4038 128.138 62.7623Z" fill="white"/>
<path d="M127.967 72.9718C127.937 72.2915 128.066 71.6704 128.353 71.1086C128.649 70.5557 129.069 70.1063 129.611 69.7603C130.163 69.4234 130.802 69.2388 131.528 69.2065C132.272 69.1734 132.93 69.3003 133.5 69.5874C134.08 69.8835 134.538 70.2986 134.873 70.8328C135.218 71.3666 135.405 71.9736 135.435 72.6539C135.466 73.3437 135.333 73.965 135.036 74.5178C134.749 75.0796 134.33 75.529 133.778 75.866C133.236 76.212 132.597 76.4013 131.862 76.434C131.126 76.4667 130.469 76.335 129.889 76.0389C129.319 75.7519 128.861 75.3415 128.516 74.8077C128.181 74.2735 127.998 73.6615 127.967 72.9718ZM129.622 72.8982C129.636 73.2195 129.724 73.4996 129.886 73.7385C130.048 73.9869 130.288 74.1751 130.605 74.303C130.923 74.4403 131.313 74.4987 131.775 74.4782C132.237 74.4576 132.616 74.3651 132.911 74.2005C133.216 74.0449 133.438 73.8362 133.577 73.5744C133.727 73.3216 133.795 73.0393 133.781 72.7275C133.767 72.4251 133.675 72.15 133.503 71.902C133.341 71.6536 133.101 71.4607 132.783 71.3234C132.475 71.1951 132.09 71.1412 131.628 71.1617C131.166 71.1823 130.783 71.2703 130.478 71.4259C130.174 71.5909 129.951 71.7996 129.811 72.0519C129.672 72.3138 129.609 72.5959 129.622 72.8982Z" fill="white"/>
<path d="M128.092 79.4943L135.195 80.1662L135.016 82.0729L127.912 81.4011L128.092 79.4943ZM136.078 81.2186C136.109 80.8796 136.235 80.6065 136.453 80.3991C136.68 80.2021 136.949 80.1183 137.259 80.1476C137.569 80.1769 137.813 80.3092 137.99 80.5444C138.175 80.79 138.252 81.0822 138.22 81.4212C138.187 81.7696 138.057 82.0423 137.83 82.2393C137.611 82.4466 137.347 82.5356 137.037 82.5063C136.727 82.477 136.479 82.3396 136.294 82.094C136.117 81.8588 136.045 81.567 136.078 81.2186Z" fill="white"/>
<path d="M127.666 84.1828L134.614 85.8114L134.23 87.4553L133.067 87.3284C133.404 87.6307 133.646 88.0033 133.795 88.4461C133.942 88.8981 133.951 89.3958 133.825 89.9391C133.689 90.5193 133.456 90.9794 133.124 91.3194C132.793 91.6594 132.374 91.8768 131.867 91.9717C131.358 92.0758 130.768 92.0492 130.097 91.892L126.086 90.9516L126.518 89.1006L130.35 89.9989C130.902 90.1281 131.352 90.1075 131.702 89.937C132.05 89.7757 132.281 89.451 132.395 88.9629C132.468 88.6498 132.46 88.3517 132.371 88.0686C132.28 87.7947 132.113 87.5563 131.869 87.3536C131.635 87.1529 131.325 87.0074 130.939 86.9169L127.231 86.0477L127.666 84.1828Z" fill="white"/>
<path d="M124.009 96.3967C124.199 95.9328 124.435 95.5544 124.717 95.2615C125.005 94.981 125.355 94.8125 125.765 94.7559C126.184 94.703 126.687 94.7965 127.272 95.0364L130.076 96.1858L130.537 95.0566L132.017 95.6635L131.557 96.7928L133.271 97.7256L132.628 99.3013L130.833 98.5654L130.12 100.312L128.64 99.7049L129.352 97.9585L126.522 96.7983C126.225 96.6766 125.993 96.6581 125.826 96.7428C125.659 96.8276 125.511 97.0276 125.382 97.3427L125.028 98.2093L123.522 97.5916L124.009 96.3967Z" fill="white"/>
<path d="M122.647 100.047L128.572 104.03L127.633 105.432L126.759 105.032C126.915 105.411 126.973 105.808 126.932 106.225C126.894 106.655 126.741 107.071 126.473 107.471C126.273 107.77 126.056 108.01 125.819 108.193C125.583 108.376 125.33 108.508 125.061 108.588C124.785 108.677 124.495 108.704 124.189 108.669C124.363 109.105 124.422 109.56 124.365 110.034C124.309 110.509 124.141 110.955 123.863 111.371C123.516 111.889 123.121 112.25 122.678 112.453C122.243 112.662 121.771 112.721 121.264 112.63C120.751 112.547 120.209 112.314 119.636 111.929L116.227 109.637L117.284 108.058L120.552 110.256C121.022 110.572 121.446 110.72 121.823 110.7C122.195 110.688 122.509 110.489 122.767 110.105C122.935 109.853 123.022 109.587 123.029 109.307C123.035 109.026 122.957 108.752 122.795 108.484C122.629 108.223 122.381 107.983 122.051 107.761L118.901 105.643L119.965 104.053L123.234 106.25C123.704 106.566 124.127 106.714 124.504 106.694C124.881 106.674 125.201 106.468 125.464 106.075C125.627 105.832 125.712 105.57 125.718 105.289C125.719 105.016 125.638 104.746 125.477 104.478C125.31 104.218 125.062 103.977 124.733 103.756L121.582 101.638L122.647 100.047Z" fill="white"/>
<path d="M111.705 113.767C112.228 113.275 112.796 112.948 113.408 112.787C114.021 112.639 114.628 112.658 115.229 112.844C115.831 113.043 116.38 113.409 116.878 113.94C117.388 114.484 117.727 115.067 117.894 115.688C118.068 116.315 118.066 116.934 117.886 117.544C117.707 118.168 117.352 118.728 116.822 119.227C116.306 119.713 115.749 120.023 115.151 120.158C114.552 120.293 113.965 120.268 113.39 120.083C112.815 119.897 112.298 119.56 111.84 119.07C111.775 119.001 111.701 118.922 111.617 118.833C111.539 118.75 111.465 118.657 111.395 118.555L115.616 114.582L116.41 115.43L113.572 118.101C113.91 118.42 114.279 118.572 114.68 118.557C115.074 118.55 115.433 118.394 115.756 118.089C115.99 117.869 116.155 117.61 116.251 117.312C116.354 117.021 116.36 116.71 116.27 116.379C116.174 116.055 115.967 115.724 115.65 115.386L115.369 115.086C115.105 114.804 114.82 114.604 114.517 114.488C114.213 114.384 113.91 114.365 113.607 114.429C113.311 114.5 113.036 114.655 112.781 114.895C112.527 115.134 112.369 115.387 112.307 115.653C112.238 115.925 112.244 116.186 112.323 116.436L110.899 117.776C110.691 117.362 110.578 116.916 110.56 116.441C110.541 115.965 110.626 115.496 110.814 115.034C111.002 114.571 111.299 114.149 111.705 113.767Z" fill="white"/>
<path d="M107.246 117.919L111.111 123.929L109.695 124.843L108.947 123.942C108.979 124.394 108.896 124.831 108.695 125.253C108.487 125.68 108.149 126.044 107.681 126.347C107.181 126.67 106.694 126.838 106.22 126.851C105.746 126.865 105.294 126.729 104.864 126.445C104.426 126.165 104.02 125.735 103.647 125.155L101.415 121.685L103.01 120.655L105.142 123.97C105.448 124.447 105.787 124.746 106.157 124.867C106.519 124.993 106.91 124.921 107.33 124.649C107.6 124.475 107.801 124.255 107.933 123.99C108.058 123.729 108.103 123.441 108.068 123.126C108.039 122.818 107.917 122.498 107.702 122.164L105.639 118.956L107.246 117.919Z" fill="white"/>
<path d="M96.1406 124.16C96.5984 123.958 97.0305 123.85 97.4369 123.836C97.8384 123.835 98.2064 123.956 98.5409 124.201C98.8792 124.455 99.1758 124.872 99.4305 125.452L100.651 128.231L101.765 127.739L102.41 129.207L101.296 129.698L101.883 131.563L100.328 132.249L99.5464 130.47L97.8231 131.23L97.1786 129.763L98.9019 129.002L97.6699 126.198C97.5407 125.903 97.3865 125.729 97.2075 125.673C97.0285 125.618 96.7836 125.659 96.4726 125.796L95.6174 126.173L94.9615 124.68L96.1406 124.16Z" fill="white"/>
<path d="M86.7067 132.329L86.7829 134.332L88.0861 132.822L89.0141 133.941L87.337 134.955L89.2414 135.327L88.7907 136.616L87.0028 135.676L87.6393 137.595L86.2726 137.835L86.2358 135.81L84.872 137.302L84.0283 136.255L85.703 135.227L83.7682 134.846L84.2396 133.51L86.0019 134.469L85.3679 132.564L86.7067 132.329Z" fill="white"/>
<path d="M74.5403 128.369L73.5882 138.254L69.544 137.862C68.8583 137.796 68.2909 137.632 67.8421 137.37C67.3932 137.108 67.07 136.773 66.8723 136.364C66.6643 135.964 66.5844 135.514 66.6324 135.015C66.6805 134.516 66.8289 134.108 67.0776 133.79C67.3263 133.472 67.6382 133.236 68.0133 133.082C68.3781 132.937 68.7733 132.871 69.1987 132.883L68.9583 133.017C68.5092 132.954 68.1217 132.793 67.7959 132.534C67.4598 132.283 67.2108 131.964 67.0489 131.578C66.8776 131.191 66.8128 130.781 66.8545 130.348C66.9053 129.82 67.077 129.367 67.3696 128.986C67.6622 128.606 68.0594 128.321 68.5612 128.132C69.0621 127.953 69.6601 127.897 70.3553 127.964L74.5403 128.369ZM72.4884 129.738L70.5156 129.547C69.999 129.497 69.5884 129.576 69.2839 129.784C68.9794 129.992 68.8058 130.318 68.7632 130.76C68.7206 131.203 68.8331 131.56 69.1007 131.833C69.3675 132.116 69.7592 132.282 70.2759 132.332L72.2204 132.52L72.4884 129.738ZM72.0831 133.946L70.2512 133.769C69.7533 133.721 69.3667 133.797 69.0913 133.999C68.8065 134.199 68.6441 134.507 68.6042 134.921C68.5652 135.326 68.6664 135.654 68.9076 135.905C69.1386 136.165 69.5077 136.32 70.015 136.369L71.8328 136.544L72.0831 133.946Z" fill="white"/>
<path d="M61.4607 126.071C62.1125 126.263 62.657 126.586 63.0941 127.041C63.5195 127.502 63.8074 128.045 63.9579 128.671C64.0967 129.304 64.0634 129.969 63.8581 130.668C63.6474 131.385 63.3141 131.967 62.858 132.414C62.3902 132.867 61.8497 133.166 61.2367 133.311C60.6209 133.464 59.9871 133.445 59.3353 133.252C58.6744 133.057 58.1313 132.729 57.7059 132.268C57.2688 131.814 56.9808 131.271 56.8421 130.638C56.6916 130.012 56.7203 129.345 56.9283 128.637C57.1363 127.93 57.4742 127.349 57.942 126.896C58.3981 126.449 58.934 126.148 59.5497 125.995C60.1628 125.85 60.7998 125.876 61.4607 126.071ZM60.9927 127.663C60.6849 127.572 60.392 127.565 60.1139 127.64C59.8268 127.713 59.5714 127.879 59.3476 128.139C59.1147 128.395 58.933 128.746 58.8023 129.19C58.6717 129.635 58.6361 130.024 58.6956 130.357C58.7434 130.696 58.8682 130.975 59.07 131.192C59.2601 131.416 59.5045 131.572 59.8032 131.66C60.0929 131.745 60.3827 131.747 60.6724 131.665C60.9595 131.592 61.2195 131.427 61.4524 131.171C61.6735 130.92 61.8494 130.573 61.98 130.128C62.1107 129.684 62.1521 129.292 62.1043 128.952C62.0474 128.61 61.9227 128.332 61.7299 128.117C61.5282 127.9 61.2824 127.748 60.9927 127.663Z" fill="white"/>
<path d="M52.3222 122.487C52.9263 122.799 53.4002 123.219 53.7442 123.748C54.0754 124.281 54.2561 124.869 54.2862 125.512C54.3037 126.159 54.146 126.807 53.8131 127.454C53.4716 128.118 53.0349 128.627 52.5029 128.98C51.9583 129.337 51.3714 129.529 50.7421 129.555C50.1086 129.59 49.4898 129.451 48.8857 129.139C48.2733 128.823 47.8015 128.398 47.4703 127.865C47.1263 127.337 46.9456 126.749 46.9282 126.101C46.898 125.458 47.0515 124.808 47.3887 124.153C47.7259 123.497 48.1669 122.99 48.7115 122.633C49.2434 122.28 49.8261 122.086 50.4597 122.052C51.089 122.026 51.7098 122.171 52.3222 122.487ZM51.5635 123.962C51.2783 123.815 50.992 123.752 50.7047 123.774C50.409 123.792 50.1269 123.907 49.8584 124.119C49.5815 124.327 49.3372 124.637 49.1253 125.049C48.9135 125.461 48.8055 125.836 48.8014 126.175C48.7846 126.517 48.8549 126.814 49.0122 127.066C49.1568 127.321 49.3676 127.521 49.6444 127.664C49.9129 127.802 50.1971 127.858 50.4971 127.833C50.7928 127.815 51.0791 127.702 51.356 127.494C51.6202 127.29 51.8582 126.982 52.07 126.57C52.2819 126.158 52.3962 125.781 52.413 125.438C52.4214 125.092 52.3512 124.795 52.2022 124.548C52.0449 124.296 51.832 124.101 51.5635 123.962Z" fill="white"/>
<path d="M42.8989 116.605L42.9503 121.568L38.8205 122.48L37.0305 121.113L42.28 120.039L41.3616 121.246L41.0076 115.16L42.8989 116.605ZM46.6139 119.444L40.4339 127.567L38.9141 126.405L45.0941 118.282L46.6139 119.444Z" fill="white"/>
<path d="M36.6901 110.985L26.5742 113.992L25.2825 112.25L31.0843 103.423L32.2916 105.052L27.6826 111.824L35.4913 109.368L36.6901 110.985ZM33.9293 111.043L32.4322 111.522L29.4266 107.468L30.3244 106.181L33.9293 111.043Z" fill="white"/>
<path d="M32.8438 100.232L23.552 104.567L22.835 103.024L23.6437 102.412C23.3918 102.362 23.145 102.279 22.9033 102.162C22.6531 102.05 22.4212 101.886 22.2076 101.673C21.9815 101.455 21.7867 101.171 21.6234 100.819C21.3406 100.21 21.2414 99.6044 21.3258 99.0017C21.4101 98.399 21.6472 97.845 22.0371 97.3397C22.4145 96.8298 22.9283 96.4232 23.5785 96.1198C24.2288 95.8164 24.8743 95.6822 25.5152 95.717C26.1474 95.7559 26.7166 95.939 27.2226 96.2663C27.7286 96.5936 28.119 97.053 28.3938 97.6447C28.6169 98.1248 28.7245 98.5806 28.7167 99.012C28.6963 99.4388 28.5839 99.8355 28.3795 100.202L32.0372 98.4956L32.8438 100.232ZM27.0706 98.7628C26.9113 98.4198 26.6948 98.1556 26.4213 97.9702C26.1439 97.7763 25.8301 97.6723 25.48 97.6583C25.13 97.6442 24.771 97.723 24.4031 97.8947C24.0351 98.0663 23.7439 98.2909 23.5292 98.5684C23.3061 98.8498 23.1792 99.1594 23.1487 99.4971C23.1056 99.8301 23.1637 100.168 23.3231 100.511C23.4784 100.846 23.6991 101.108 23.9851 101.298C24.2586 101.483 24.5724 101.587 24.9265 101.61C25.2765 101.624 25.6355 101.545 26.0034 101.373C26.3713 101.202 26.6669 100.975 26.8901 100.694C27.1007 100.407 27.2233 100.1 27.2578 99.7708C27.2883 99.4332 27.2259 99.0971 27.0706 98.7628Z" fill="white"/>
<path d="M28.8766 91.29L18.9122 93.6954L18.5144 92.0403L19.4281 91.6009C19.1908 91.5025 18.9653 91.3721 18.7516 91.2097C18.5286 91.0495 18.3335 90.8436 18.1663 90.5922C17.9876 90.3337 17.853 90.016 17.7624 89.639C17.6055 88.9861 17.6279 88.3727 17.8297 87.7986C18.0315 87.2246 18.3734 86.7286 18.8554 86.3107C19.326 85.8857 19.9099 85.5891 20.6073 85.4208C21.3046 85.2524 21.9639 85.2489 22.5851 85.4103C23.1972 85.5738 23.7189 85.8662 24.1502 86.2874C24.5815 86.7086 24.8734 87.2365 25.0259 87.8709C25.1497 88.3858 25.1652 88.8539 25.0723 89.2752C24.968 89.6895 24.7794 90.0561 24.5066 90.3749L28.429 89.428L28.8766 91.29ZM23.508 88.7043C23.4196 88.3365 23.2596 88.0346 23.0282 87.7987C22.7945 87.5535 22.5075 87.3893 22.1671 87.3061C21.8268 87.2229 21.4593 87.2289 21.0648 87.3241C20.6702 87.4194 20.3404 87.5817 20.0752 87.8111C19.8008 88.0427 19.6153 88.321 19.5186 88.6459C19.4106 88.9638 19.4008 89.3067 19.4892 89.6745C19.5754 90.0331 19.7399 90.3339 19.9828 90.5768C20.2142 90.8128 20.5013 90.977 20.8438 91.0694C21.1842 91.1526 21.5516 91.1466 21.9462 91.0514C22.3407 90.9561 22.6752 90.7927 22.9496 90.5611C23.2126 90.3225 23.3935 90.0453 23.4923 89.7296C23.589 89.4047 23.5942 89.0629 23.508 88.7043Z" fill="white"/>
<path d="M23.687 78.4948C23.7165 79.1751 23.5877 79.7961 23.3004 80.3577C23.0032 80.9103 22.5834 81.3594 22.0411 81.7049C21.4889 82.0414 20.8498 82.2255 20.1238 82.2572C19.3789 82.2898 18.7216 82.1623 18.1517 81.8747C17.572 81.5782 17.1147 81.1627 16.7797 80.6282C16.4353 80.0942 16.2483 79.487 16.2187 78.8067C16.1887 78.1169 16.3223 77.4957 16.6195 76.9431C16.9068 76.3815 17.3265 75.9324 17.8787 75.5959C18.4211 75.2504 19.0599 75.0615 19.7954 75.0294C20.5308 74.9973 21.1884 75.1295 21.7681 75.4261C22.338 75.7136 22.7951 76.1244 23.1395 76.6585C23.4745 77.1929 23.657 77.805 23.687 78.4948ZM22.0322 78.567C22.0182 78.2458 21.9305 77.9656 21.7689 77.7265C21.607 77.478 21.3674 77.2896 21.05 77.1615C20.7323 77.0239 20.3424 76.9652 19.8804 76.9854C19.4184 77.0055 19.0398 77.0978 18.7447 77.2622C18.4397 77.4175 18.2173 77.626 18.0776 77.8877C17.9279 78.1404 17.8599 78.4226 17.8735 78.7344C17.8866 79.0368 17.9789 79.312 18.1503 79.5602C18.3122 79.8087 18.5521 80.0018 18.8698 80.1394C19.1777 80.2679 19.5626 80.3221 20.0246 80.3019C20.4866 80.2818 20.8701 80.194 21.1751 80.0387C21.4797 79.8739 21.7021 79.6654 21.8423 79.4132C21.982 79.1514 22.0454 78.8694 22.0322 78.567Z" fill="white"/>
<path d="M23.5677 71.9726L16.4649 71.2951L16.646 69.3885L23.7488 70.066L23.5677 71.9726ZM15.5837 70.242C15.5515 70.5809 15.426 70.854 15.2072 71.0611C14.98 71.258 14.7113 71.3416 14.4013 71.312C14.0912 71.2824 13.8478 71.15 13.6711 70.9146C13.4859 70.6689 13.4093 70.3766 13.4415 70.0376C13.4746 69.6893 13.6048 69.4167 13.8321 69.2198C14.0508 69.0127 14.3152 68.9239 14.6253 68.9535C14.9353 68.983 15.183 69.1207 15.3682 69.3664C15.5449 69.6017 15.6168 69.8936 15.5837 70.242Z" fill="white"/>
<path d="M23.997 67.2841L17.0509 65.6498L17.4359 64.0063L18.5984 64.1341C18.2621 63.8315 18.0198 63.4588 17.8716 63.0158C17.7254 62.5637 17.716 62.066 17.8433 61.5228C17.9792 60.9427 18.2129 60.4828 18.5446 60.1431C18.8762 59.8034 19.2955 59.5863 19.8023 59.4918C20.3113 59.3881 20.9012 59.4152 21.5719 59.573L25.5825 60.5166L25.1489 62.3673L21.3175 61.4658C20.7662 61.3361 20.3155 61.3564 19.9654 61.5266C19.6175 61.6876 19.3864 62.0121 19.272 62.5001C19.1987 62.8132 19.2064 63.1113 19.2952 63.3945C19.3861 63.6685 19.5532 63.907 19.7965 64.1099C20.0306 64.3107 20.3406 64.4565 20.7265 64.5473L24.4338 65.4196L23.997 67.2841Z" fill="white"/>
<path d="M27.6642 55.0739C27.4744 55.5377 27.2381 55.9159 26.9552 56.2085C26.6671 56.4888 26.3178 56.6571 25.9072 56.7133C25.4879 56.7659 24.9857 56.672 24.4006 56.4316L21.5975 55.2799L21.1357 56.4088L19.6555 55.8007L20.1174 54.6718L18.4034 53.7376L19.0478 52.1625L20.8423 52.8997L21.5566 51.1539L23.0367 51.762L22.3225 53.5079L25.1518 54.6703C25.4487 54.7923 25.6807 54.8109 25.8479 54.7263C26.0152 54.6417 26.1632 54.4419 26.2921 54.1268L26.6465 53.2605L28.1529 53.8794L27.6642 55.0739Z" fill="white"/>
<path d="M29.0287 51.4245L23.1066 47.4365L24.0463 46.0353L24.9204 46.4359C24.7647 46.0576 24.7073 45.66 24.748 45.243C24.7863 44.813 24.9396 44.3978 25.2081 43.9974C25.4081 43.6991 25.6262 43.4586 25.8625 43.2758C26.0987 43.0931 26.3518 42.9615 26.6217 42.8812C26.8969 42.793 27.1876 42.7665 27.4937 42.8018C27.3199 42.3657 27.2614 41.9104 27.3181 41.4358C27.3748 40.9612 27.5426 40.5159 27.8216 40.0998C28.169 39.5817 28.5643 39.2212 29.0074 39.0182C29.4427 38.8099 29.9141 38.7513 30.4216 38.8424C30.9343 38.9256 31.4766 39.1597 32.0484 39.5448L35.456 41.8395L34.3979 43.4174L31.1314 41.2176C30.6614 40.9011 30.2379 40.7527 29.8609 40.7723C29.4891 40.784 29.1743 40.9822 28.9164 41.3669C28.7479 41.6181 28.6606 41.884 28.6543 42.1647C28.648 42.4453 28.7256 42.7197 28.8869 42.9879C29.0534 43.2482 29.3012 43.4891 29.6302 43.7107L32.7793 45.8313L31.7133 47.421L28.4468 45.2212C27.9768 44.9047 27.5533 44.7563 27.1763 44.7758C26.7993 44.7954 26.4792 45.0015 26.216 45.394C26.0528 45.6374 25.9681 45.8994 25.9618 46.18C25.9608 46.4528 26.0409 46.7233 26.2023 46.9915C26.3688 47.2518 26.6166 47.4927 26.9456 47.7143L30.0947 49.8349L29.0287 51.4245Z" fill="white"/>
<path d="M39.9824 37.7133C39.4592 38.2049 38.8912 38.5312 38.2784 38.6921C37.6661 38.8397 37.0591 38.8201 36.4575 38.6334C35.8563 38.4334 35.3072 38.0677 34.8101 37.5365C34.3001 36.9914 33.9616 36.4084 33.7946 35.7874C33.6211 35.1596 33.6243 34.5407 33.8041 33.9309C33.9844 33.3078 34.3396 32.7471 34.8697 32.249C35.386 31.7638 35.9435 31.4539 36.5421 31.3193C37.1406 31.1847 37.7274 31.2103 38.3023 31.3961C38.8772 31.5819 39.3939 31.9198 39.8522 32.4096C39.9168 32.4786 39.991 32.558 40.0749 32.6477C40.1524 32.7304 40.2262 32.8232 40.2964 32.9258L36.0726 36.8947L35.2786 36.0461L38.1185 33.3775C37.7816 33.0588 37.4125 32.9064 37.0115 32.9203C36.6173 32.9276 36.2584 33.0833 35.9348 33.3874C35.7008 33.6073 35.5355 33.8663 35.4392 34.1643C35.3363 34.4554 35.3297 34.7663 35.4192 35.0971C35.5157 35.4214 35.722 35.7526 36.0383 36.0906L36.3192 36.3907C36.5838 36.6736 36.8679 36.8735 37.1713 36.9903C37.4751 37.0938 37.7782 37.1136 38.0808 37.0497C38.3768 36.979 38.6522 36.8239 38.9069 36.5846C39.1617 36.3452 39.32 36.0927 39.382 35.8271C39.4508 35.5549 39.4458 35.2938 39.367 35.0437L40.7922 33.7046C40.9992 34.1194 41.1118 34.5647 41.1299 35.0403C41.148 35.516 41.0628 35.985 40.8744 36.4473C40.6859 36.9096 40.3886 37.3316 39.9824 37.7133Z" fill="white"/>
<path d="M44.4444 33.5651L40.5838 27.552L42.0005 26.6385L42.7477 27.5401C42.7158 27.0883 42.8001 26.6516 43.0007 26.2298C43.2092 25.803 43.5476 25.4386 44.0159 25.1367C44.5159 24.8143 45.0029 24.6464 45.477 24.6332C45.9511 24.6199 46.4031 24.7559 46.833 25.041C47.2709 25.321 47.6762 25.7513 48.049 26.3319L50.278 29.8038L48.6827 30.8324L46.5532 27.5156C46.2468 27.0384 45.9088 26.739 45.539 26.6176C45.1772 26.491 44.7859 26.5633 44.3653 26.8345C44.0954 27.0085 43.8942 27.2282 43.7616 27.4937C43.6369 27.754 43.5917 28.0418 43.6258 28.3572C43.6549 28.6646 43.7766 28.9854 43.9911 29.3194L46.0516 32.5288L44.4444 33.5651Z" fill="white"/>
<path d="M55.5549 27.3327C55.0969 27.5343 54.6648 27.6419 54.2584 27.6554C53.8569 27.6566 53.4889 27.5344 53.1546 27.289C52.8165 27.035 52.5203 26.6179 52.266 26.0377L51.0477 23.258L49.9331 23.7486L49.2898 22.2809L50.4044 21.7902L49.8189 19.9251L51.3743 19.2405L52.1543 21.0201L53.8781 20.2613L54.5214 21.7291L52.7976 22.4878L54.0272 25.2935C54.1563 25.5879 54.3103 25.7629 54.4892 25.8184C54.6682 25.8739 54.9132 25.8332 55.2243 25.6963L56.0797 25.3198L56.7344 26.8135L55.5549 27.3327Z" fill="white"/>
<path d="M64.9946 19.1711L64.92 17.1682L63.6156 18.6771L62.6884 17.5571L64.3664 16.5447L62.4623 16.1709L62.914 14.8826L64.7011 15.8239L64.0662 13.9042L65.4331 13.666L65.4682 15.6902L66.8332 14.1996L67.6761 15.2478L66.0006 16.2742L67.9351 16.6571L67.4627 17.9922L65.7011 17.032L66.3335 18.9378L64.9946 19.1711Z" fill="white"/>
<circle cx="75.8302" cy="75.7536" r="31.25" fill="#273A29"/>
<path d="M79.1197 67.4598C78.2781 66.6185 77.1154 66.0975 75.8308 66.0975C75.1991 66.0975 74.5989 66.2236 74.052 66.449C73.483 66.6845 72.9702 67.0301 72.5424 67.4598C72.1132 67.8873 71.7684 68.4 71.5322 68.9693C71.3061 69.5162 71.1811 70.1167 71.1811 70.7482C71.1811 71.0678 71.2117 71.3759 71.2702 71.6683C71.3323 71.9739 71.4246 72.2676 71.5419 72.549C71.6642 72.8393 71.8118 73.1119 71.9814 73.3627C72.1552 73.6174 72.3552 73.856 72.5754 74.072C72.7924 74.2839 73.028 74.4754 73.278 74.6408C73.4841 74.7765 73.701 74.8955 73.9261 74.9979L74.0713 75.0563C74.3429 75.1681 74.6305 75.2528 74.931 75.3123C75.2192 75.3677 75.5205 75.3971 75.8308 75.3971C76.1438 75.3971 76.4452 75.3676 76.7352 75.3123C76.9792 75.2653 77.2157 75.1987 77.4448 75.1139L77.5906 75.0544C77.8738 74.9402 78.1402 74.7989 78.3865 74.6359C78.6373 74.4728 78.8715 74.2822 79.0865 74.072C79.3075 73.856 79.5068 73.6174 79.6797 73.3627C79.8501 73.1119 79.9986 72.8393 80.121 72.549C80.2381 72.2676 80.329 71.9737 80.3912 71.6683C80.4504 71.3757 80.481 71.0678 80.481 70.7482C80.481 70.1146 80.3561 69.5144 80.1298 68.9686C79.8956 68.4019 79.5483 67.8897 79.1197 67.4598ZM69.8807 80.7411C70.3168 80.306 70.8201 79.9769 71.3583 79.7556C71.9173 79.5249 72.5125 79.409 73.1047 79.409C73.6298 79.409 74.1567 79.4995 74.6609 79.6816C75.0732 79.8298 75.4679 80.0389 75.8316 80.3102C76.1933 80.0388 76.5884 79.8298 77.0016 79.6816C77.5047 79.4996 78.0324 79.409 78.5568 79.409C79.1501 79.409 79.7466 79.5249 80.3059 79.7556C80.8459 79.978 81.349 80.3079 81.7832 80.7411L81.999 80.957L81.9913 80.9667C82.3238 81.3469 82.5844 81.7721 82.7706 82.2211C83.0014 82.7816 83.1166 83.3761 83.1166 83.9696C83.1166 84.5617 83.0014 85.1576 82.7706 85.718C82.5468 86.2567 82.2184 86.7611 81.7842 87.1963L77.3246 91.6545C76.8852 92.1102 76.443 92.5764 75.9948 93.0196C75.4348 93.5271 74.5489 94.1494 73.3833 94.3967C72.2193 94.6423 70.784 94.511 69.1351 93.5108C69.107 93.496 69.0769 93.4753 69.0503 93.4571C68.5518 93.0856 68.0884 92.6793 67.6649 92.2409C67.2708 91.8348 66.9098 91.4031 66.5848 90.9481H58.365V69.5403L75.8305 57.0036L93.2955 69.5403V90.9481H86.3274L86.6157 90.4844C86.7641 90.2446 86.9039 90.0009 87.0332 89.7538C87.1628 89.5082 87.2832 89.2557 87.3968 88.996L87.4764 88.8129H91.1608V70.6271L75.8305 59.6234L60.5011 70.6271V88.8129H65.3827C65.111 88.1813 64.8967 87.5236 64.743 86.8501C64.5561 86.0289 64.4581 85.1839 64.4581 84.331C64.4581 83.1918 64.6266 82.0904 64.9387 81.0514C65.2629 79.9769 65.7417 78.9672 66.3498 78.0525C66.8678 77.2701 67.482 76.5561 68.1731 75.9271C68.7795 75.375 69.4454 74.8864 70.1608 74.4749C70.078 74.3488 69.9994 74.22 69.9243 74.0869C69.7923 73.8537 69.6742 73.616 69.5729 73.3729C69.4028 72.9684 69.2691 72.5381 69.1799 72.0888C69.0917 71.651 69.0456 71.2018 69.0456 70.7483C69.0456 69.8317 69.2281 68.9546 69.5601 68.1545C69.9042 67.3216 70.4085 66.5737 71.033 65.9509C71.6579 65.3251 72.405 64.8218 73.2365 64.4767C74.0378 64.1453 74.9135 63.9622 75.8306 63.9622C76.7473 63.9622 77.6244 64.1453 78.4249 64.4767C79.2568 64.8218 80.0048 65.3251 80.6293 65.9509C81.8568 67.1783 82.6163 68.875 82.6163 70.7483C82.6163 71.2018 82.5697 71.651 82.4826 72.0888C82.3917 72.5381 82.2588 72.9684 82.0886 73.3729C81.9873 73.616 81.87 73.8538 81.7373 74.0869C81.662 74.22 81.5834 74.3488 81.5004 74.4749C82.216 74.8864 82.8827 75.375 83.4883 75.9271C84.1794 76.5559 84.7937 77.2701 85.3117 78.0525C85.92 78.9672 86.3985 79.9769 86.7221 81.0514C87.0355 82.0904 87.2043 83.1919 87.2043 84.331C87.2043 85.2201 87.0987 86.1008 86.8959 86.9508C86.6916 87.8115 86.3858 88.6456 85.988 89.4364C85.5908 90.227 85.1039 90.9702 84.5352 91.6463C83.9727 92.3151 83.3284 92.9233 82.6111 93.4584C82.5849 93.4753 82.5553 93.496 82.5282 93.5125C81.3576 94.2207 80.2914 94.4915 79.3556 94.5032C78.4105 94.5127 77.6013 94.2577 76.9454 93.9158L76.5808 93.7256L78.1465 92.122L78.3275 92.1844C78.7128 92.315 79.1607 92.3851 79.6677 92.3312C80.177 92.2781 80.7468 92.095 81.3732 91.7241C81.9482 91.2942 82.4644 90.804 82.9154 90.2647C83.3767 89.7143 83.7698 89.1168 84.0869 88.485C84.4069 87.8462 84.6542 87.171 84.8194 86.4688C84.9836 85.7775 85.0683 85.0599 85.0683 84.3312C85.0683 83.4009 84.9321 82.5062 84.6786 81.6632C84.4163 80.7896 84.0278 79.9706 83.5358 79.2281C83.0762 78.5359 82.5257 77.9079 81.9038 77.3649C81.3312 76.8664 80.697 76.4353 80.0128 76.0881C79.7919 76.2617 79.5605 76.4224 79.3193 76.5665C79.022 76.745 78.712 76.9009 78.3921 77.0322L78.1151 77.1459L78.1116 77.1364C77.7955 77.25 77.4687 77.3413 77.1332 77.406C76.7093 77.4901 76.2743 77.5343 75.8312 77.5343C75.3873 77.5343 74.9498 77.4901 74.5254 77.4071C74.0908 77.3223 73.6716 77.1958 73.2714 77.0321L73.0809 76.9532V76.9473C72.8239 76.832 72.5777 76.7041 72.3418 76.5635C72.1023 76.4199 71.871 76.2595 71.6497 76.0878C70.9656 76.435 70.3313 76.866 69.759 77.3646C69.1368 77.9074 68.5862 78.5356 68.1267 79.2278C67.634 79.9703 67.246 80.7893 66.9842 81.6629C66.7307 82.506 66.5943 83.4007 66.5943 84.3308C66.5943 85.0578 66.6791 85.7744 66.8424 86.4655C67.0085 87.1671 67.2547 87.8435 67.5754 88.4794C67.8941 89.1147 68.2875 89.714 68.7487 90.2645C69.1997 90.8038 69.7151 91.294 70.2892 91.724C71.3492 92.3504 72.2491 92.4352 72.9665 92.2856C73.6331 92.1467 74.1494 91.8057 74.493 91.5109L74.9412 91.0499L75.0022 90.9751L75.1876 90.789L75.1927 90.7925C76.8704 89.0734 78.5777 87.3844 80.2753 85.6855C80.5067 85.4541 80.6814 85.1863 80.7995 84.9025C80.9208 84.607 80.9819 84.289 80.9819 83.9694C80.9819 83.6481 80.9215 83.3307 80.8012 83.0363C80.6865 82.7563 80.5162 82.493 80.2925 82.2645L80.2751 82.2509C80.0425 82.0191 79.7753 81.8447 79.4914 81.7276C79.1961 81.6059 78.8771 81.5438 78.5575 81.5438C78.2377 81.5438 77.9184 81.6059 77.6233 81.7276C77.3392 81.8447 77.072 82.0192 76.8406 82.2509L75.8328 83.2565L74.9163 82.3396H74.9122L74.8229 82.2508C74.5904 82.0189 74.3232 81.8445 74.0389 81.7274C73.7438 81.6057 73.425 81.5437 73.105 81.5437C72.7854 81.5437 72.4653 81.6057 72.1702 81.7274C71.8837 81.8433 71.617 82.0191 71.3856 82.2478C71.1575 82.4781 70.9817 82.7453 70.863 83.0333C70.7432 83.3253 70.6803 83.6425 70.6803 83.9694C70.6803 84.289 70.7417 84.6064 70.864 84.9019C70.9808 85.1863 71.1549 85.4541 71.3874 85.6855L71.3903 85.6924L71.4237 85.7267L71.4246 85.7237L75.1898 89.4886L73.6993 91.0169L69.8772 87.1963C69.444 86.7611 69.1146 86.2567 68.8917 85.718C68.6613 85.1576 68.5451 84.5617 68.5451 83.9696C68.5451 83.3761 68.6613 82.7816 68.8917 82.2211C69.1138 81.6843 69.4432 81.1808 69.8772 80.7463L69.8807 80.7411Z" fill="white"/>
</svg>
