<svg width="168" height="169" viewBox="0 0 168 169" fill="none" xmlns="http://www.w3.org/2000/svg">
<g clip-path="url(#clip0_66_2447)">
<path d="M167.812 84.7827C167.812 38.7255 130.475 1.38867 84.4175 1.38867C38.3602 1.38867 1.02344 38.7255 1.02344 84.7827C1.02344 130.84 38.3602 168.177 84.4175 168.177C130.475 168.177 167.812 130.84 167.812 84.7827Z" fill="#1B537C"/>
<path d="M85.8003 26.2791L86.8503 15.2871L91.3474 15.7184C92.11 15.7916 92.741 15.9736 93.2403 16.2645C93.7396 16.5554 94.0993 16.928 94.3195 17.3823C94.5511 17.8271 94.6404 18.3269 94.5874 18.8817C94.5344 19.4366 94.3698 19.8909 94.0936 20.2447C93.8172 20.5985 93.4707 20.8611 93.0537 21.0324C92.6482 21.1942 92.2089 21.2682 91.7357 21.2546L92.003 21.1059C92.5024 21.175 92.9334 21.3536 93.2959 21.642C93.6698 21.9208 93.947 22.2749 94.1274 22.7042C94.3182 23.1345 94.3907 23.5905 94.3446 24.0719C94.2886 24.6583 94.0981 25.1629 93.7731 25.5859C93.448 26.0091 93.0067 26.3259 92.4488 26.5365C91.8921 26.7367 91.2272 26.7997 90.4541 26.7255L85.8003 26.2791ZM88.0807 24.7547L90.2744 24.9652C90.849 25.0202 91.3054 24.932 91.6439 24.7003C91.9822 24.4687 92.1749 24.1069 92.2219 23.6148C92.2689 23.1228 92.1435 22.7252 91.8457 22.4219C91.5488 22.1082 91.1132 21.9238 90.5386 21.8687L88.3762 21.6612L88.0807 24.7547ZM88.5277 20.0753L90.5648 20.2706C91.1184 20.3238 91.5483 20.2383 91.8543 20.014C92.1708 19.7908 92.3511 19.4489 92.395 18.9884C92.438 18.5381 92.3253 18.1734 92.0567 17.8941C91.7997 17.6054 91.3891 17.4339 90.8251 17.3799L88.8037 17.1859L88.5277 20.0753Z" fill="white"/>
<path d="M100.346 28.8228C99.6208 28.6095 99.015 28.2504 98.5287 27.7456C98.0552 27.2337 97.7345 26.6296 97.5666 25.9335C97.4119 25.2303 97.4482 24.4902 97.6758 23.7134C97.9095 22.9161 98.2796 22.2689 98.7863 21.7713C99.3061 21.2666 99.9068 20.9337 100.588 20.7725C101.273 20.6013 101.978 20.6224 102.703 20.8357C103.438 21.052 104.042 21.4161 104.515 21.9282C105.002 22.433 105.322 23.037 105.477 23.7401C105.645 24.4362 105.614 25.1779 105.383 25.9649C105.152 26.7519 104.777 27.3978 104.258 27.9025C103.751 28.4 103.155 28.7345 102.471 28.9056C101.789 29.0668 101.081 29.0391 100.346 28.8228ZM100.865 27.052C101.207 27.1527 101.533 27.1609 101.842 27.0765C102.161 26.9951 102.445 26.8101 102.693 26.5215C102.952 26.236 103.154 25.8459 103.299 25.3515C103.444 24.8571 103.483 24.4248 103.416 24.0544C103.363 23.677 103.224 23.3675 102.999 23.1261C102.788 22.8775 102.516 22.7044 102.184 22.6065C101.861 22.5118 101.539 22.5101 101.217 22.6017C100.898 22.6832 100.609 22.8666 100.35 23.1522C100.105 23.4306 99.9095 23.8171 99.7646 24.3115C99.6197 24.8059 99.574 25.2419 99.6275 25.6193C99.691 25.9997 99.83 26.3091 100.044 26.5476C100.269 26.789 100.542 26.9572 100.865 27.052Z" fill="white"/>
<path d="M110.51 32.8C109.838 32.4538 109.311 31.9869 108.928 31.3992C108.559 30.8071 108.358 30.1534 108.324 29.4381C108.304 28.7183 108.479 27.9983 108.848 27.2781C109.227 26.5394 109.712 25.9734 110.304 25.5803C110.909 25.1827 111.561 24.9691 112.26 24.9395C112.965 24.9005 113.654 25.0542 114.325 25.4004C115.007 25.7516 115.532 26.2231 115.901 26.8152C116.283 27.4029 116.485 28.0566 116.505 28.7764C116.539 29.4917 116.369 30.2141 115.994 30.9436C115.621 31.673 115.13 32.2366 114.525 32.6341C113.934 33.0272 113.286 33.2432 112.582 33.2823C111.882 33.312 111.192 33.1512 110.51 32.8ZM111.353 31.1587C111.67 31.3223 111.988 31.3918 112.308 31.3672C112.636 31.3474 112.95 31.2193 113.249 30.9828C113.556 30.7512 113.827 30.4062 114.063 29.9479C114.297 29.4897 114.418 29.0724 114.422 28.6963C114.44 28.3154 114.362 27.9853 114.186 27.7059C114.026 27.4218 113.792 27.2004 113.484 27.0417C113.184 26.8878 112.869 26.8255 112.535 26.8545C112.206 26.8743 111.888 27 111.58 27.2316C111.287 27.4588 111.022 27.8015 110.787 28.2597C110.552 28.7179 110.425 29.1375 110.407 29.5183C110.398 29.9038 110.476 30.2339 110.642 30.5087C110.817 30.7881 111.054 31.0048 111.353 31.1587Z" fill="white"/>
<path d="M120.995 39.3311L120.933 33.8125L125.524 32.7946L127.515 34.3138L121.68 35.5121L122.7 34.1691L123.099 40.9362L120.995 39.3311ZM116.861 36.1781L123.726 27.1406L125.416 28.4306L118.552 37.468L116.861 36.1781Z" fill="white"/>
<path d="M127.903 45.5752L139.149 42.2227L140.587 44.1588L134.143 53.9781L132.8 52.1684L137.918 44.6347L129.239 47.3722L127.903 45.5752ZM130.973 45.5078L132.638 44.9745L135.984 49.4797L134.986 50.9115L130.973 45.5078Z" fill="white"/>
<path d="M132.188 57.5277L142.516 52.6992L143.314 54.4147L142.416 55.096C142.696 55.1506 142.971 55.2427 143.24 55.3724C143.518 55.4976 143.776 55.6787 144.014 55.9157C144.265 56.1577 144.482 56.4742 144.664 56.8649C144.979 57.5416 145.09 58.215 144.997 58.8853C144.903 59.5555 144.64 60.1718 144.207 60.734C143.788 61.3013 143.217 61.7539 142.494 62.0918C141.771 62.4297 141.054 62.5795 140.341 62.5414C139.638 62.4987 139.005 62.2956 138.442 61.9322C137.879 61.5687 137.445 61.0582 137.139 60.4006C136.89 59.8669 136.77 59.3602 136.778 58.8805C136.801 58.4059 136.925 57.9647 137.152 57.5569L133.087 59.4576L132.188 57.5277ZM138.609 59.1561C138.787 59.5374 139.027 59.831 139.331 60.0368C139.641 60.2522 139.989 60.3676 140.379 60.3828C140.768 60.3982 141.167 60.3102 141.575 60.1191C141.984 59.9278 142.308 59.6779 142.547 59.3691C142.795 59.056 142.935 58.7116 142.969 58.3361C143.016 57.9657 142.952 57.59 142.774 57.2087C142.602 56.837 142.356 56.5457 142.037 56.3348C141.733 56.1289 141.384 56.0135 140.99 55.9887C140.601 55.9734 140.202 56.0613 139.793 56.2526C139.384 56.4437 139.056 56.6959 138.808 57.0091C138.574 57.3274 138.437 57.6695 138.4 58.0354C138.366 58.4109 138.435 58.7844 138.609 59.1561Z" fill="white"/>
<path d="M136.607 67.4668L147.685 64.7832L148.129 66.6231L147.114 67.1126C147.377 67.2218 147.629 67.3666 147.867 67.547C148.115 67.7249 148.332 67.9536 148.517 68.233C148.716 68.5204 148.866 68.8735 148.968 69.2926C149.142 70.0183 149.119 70.7005 148.894 71.339C148.671 71.9774 148.29 72.5293 147.756 72.9944C147.232 73.4673 146.584 73.7977 145.809 73.9855C145.032 74.1733 144.3 74.1777 143.609 73.9989C142.929 73.8177 142.348 73.493 141.868 73.025C141.388 72.5571 141.063 71.9704 140.893 71.2651C140.755 70.6926 140.737 70.1722 140.839 69.7037C140.955 69.2429 141.165 68.8352 141.468 68.4804L137.108 69.5368L136.607 67.4668ZM142.58 70.337C142.679 70.7459 142.856 71.0815 143.114 71.3436C143.375 71.6161 143.694 71.7983 144.072 71.8906C144.451 71.9828 144.859 71.9758 145.297 71.8695C145.736 71.7633 146.103 71.5825 146.398 71.3271C146.703 71.0693 146.908 70.7598 147.016 70.3984C147.135 70.0448 147.146 69.6635 147.047 69.2547C146.952 68.8561 146.768 68.5217 146.498 68.2518C146.24 67.9896 145.921 67.8073 145.539 67.7049C145.161 67.6126 144.753 67.6196 144.314 67.7259C143.876 67.8322 143.504 68.0142 143.199 68.272C142.906 68.5375 142.706 68.8458 142.596 69.197C142.489 69.5583 142.484 69.9384 142.58 70.337Z" fill="white"/>
<path d="M142.389 81.6905C142.356 80.934 142.499 80.2434 142.818 79.6187C143.147 79.004 143.614 78.5043 144.217 78.1195C144.831 77.7449 145.541 77.5397 146.349 77.5038C147.176 77.467 147.907 77.6081 148.541 77.9273C149.186 78.2565 149.695 78.7181 150.068 79.3121C150.452 79.9056 150.659 80.5806 150.693 81.337C150.727 82.104 150.579 82.7948 150.249 83.4095C149.93 84.0342 149.464 84.5339 148.85 84.9086C148.248 85.2933 147.537 85.5038 146.72 85.5402C145.902 85.5765 145.171 85.4301 144.526 85.1008C143.892 84.7817 143.383 84.3254 142.999 83.7319C142.627 83.1379 142.423 82.4574 142.389 81.6905ZM144.229 81.6086C144.245 81.9659 144.343 82.2773 144.523 82.543C144.703 82.8192 144.97 83.0284 145.322 83.1707C145.676 83.3233 146.109 83.3883 146.623 83.3655C147.137 83.3426 147.558 83.2397 147.886 83.0567C148.225 82.8837 148.472 82.6516 148.627 82.3605C148.794 82.0794 148.869 81.7655 148.854 81.4188C148.838 81.0826 148.736 80.7767 148.545 80.5009C148.364 80.2247 148.098 80.0103 147.744 79.8576C147.402 79.7149 146.973 79.655 146.46 79.6778C145.946 79.7007 145.52 79.7985 145.181 79.9716C144.843 80.155 144.595 80.3871 144.439 80.6676C144.285 80.9588 144.215 81.2725 144.229 81.6086Z" fill="white"/>
<path d="M142.528 88.9414L150.426 89.6885L150.227 91.8086L142.328 91.0616L142.528 88.9414ZM151.408 90.8587C151.443 90.4817 151.583 90.1781 151.825 89.9475C152.077 89.7284 152.377 89.6352 152.721 89.6678C153.066 89.7004 153.337 89.8475 153.534 90.109C153.74 90.3821 153.825 90.707 153.79 91.084C153.753 91.4714 153.609 91.7746 153.356 91.9936C153.113 92.2241 152.819 92.3231 152.474 92.2905C152.13 92.2579 151.854 92.1052 151.648 91.8321C151.451 91.5705 151.371 91.2461 151.408 90.8587Z" fill="white"/>
<path d="M142.055 94.1562L149.78 95.9671L149.353 97.795L148.06 97.6539C148.435 97.99 148.704 98.4043 148.87 98.8967C149.033 99.3993 149.043 99.9527 148.903 100.557C148.752 101.202 148.493 101.714 148.124 102.092C147.755 102.47 147.29 102.711 146.726 102.817C146.16 102.933 145.504 102.903 144.758 102.728L140.298 101.683L140.778 99.6245L145.039 100.623C145.653 100.767 146.153 100.744 146.542 100.554C146.929 100.375 147.186 100.014 147.313 99.4713C147.394 99.1232 147.385 98.7917 147.286 98.477C147.185 98.1724 146.999 97.9073 146.728 97.6819C146.468 97.4588 146.123 97.297 145.694 97.1964L141.571 96.2299L142.055 94.1562Z" fill="white"/>
<path d="M137.988 107.737C138.2 107.221 138.462 106.8 138.776 106.475C139.096 106.163 139.485 105.975 139.941 105.912C140.407 105.854 140.966 105.958 141.616 106.224L144.734 107.502L145.247 106.247L146.893 106.922L146.381 108.177L148.287 109.214L147.572 110.967L145.576 110.148L144.783 112.09L143.138 111.415L143.929 109.473L140.783 108.183C140.452 108.048 140.194 108.028 140.009 108.122C139.823 108.216 139.658 108.438 139.515 108.789L139.121 109.752L137.447 109.065L137.988 107.737Z" fill="white"/>
<path d="M136.474 111.795L143.062 116.224L142.018 117.783L141.046 117.338C141.22 117.759 141.284 118.201 141.239 118.664C141.196 119.142 141.026 119.605 140.728 120.05C140.506 120.382 140.265 120.649 140.001 120.853C139.739 121.056 139.457 121.203 139.158 121.292C138.851 121.391 138.529 121.421 138.189 121.382C138.382 121.867 138.448 122.373 138.384 122.9C138.322 123.428 138.135 123.924 137.826 124.386C137.44 124.962 137.001 125.364 136.508 125.589C136.025 125.822 135.5 125.887 134.936 125.786C134.366 125.694 133.763 125.435 133.126 125.007L129.335 122.458L130.511 120.703L134.145 123.147C134.667 123.498 135.139 123.662 135.558 123.64C135.971 123.627 136.321 123.406 136.607 122.979C136.794 122.698 136.891 122.403 136.899 122.091C136.905 121.779 136.819 121.474 136.639 121.176C136.454 120.886 136.178 120.619 135.811 120.372L132.309 118.017L133.492 116.249L137.127 118.692C137.649 119.044 138.12 119.208 138.539 119.186C138.958 119.164 139.314 118.935 139.606 118.498C139.788 118.227 139.882 117.936 139.889 117.624C139.89 117.32 139.8 117.02 139.621 116.722C139.435 116.433 139.159 116.165 138.793 115.919L135.29 113.564L136.474 111.795Z" fill="white"/>
<path d="M124.307 127.051C124.889 126.504 125.52 126.14 126.201 125.961C126.883 125.796 127.557 125.818 128.226 126.024C128.895 126.246 129.506 126.653 130.059 127.243C130.626 127.848 131.003 128.496 131.189 129.187C131.382 129.884 131.38 130.572 131.18 131.25C130.981 131.944 130.586 132.567 129.997 133.122C129.423 133.662 128.804 134.007 128.139 134.157C127.473 134.307 126.82 134.279 126.181 134.074C125.542 133.867 124.967 133.492 124.457 132.947C124.385 132.87 124.303 132.783 124.209 132.684C124.123 132.591 124.04 132.488 123.963 132.374L128.656 127.957L129.539 128.9L126.383 131.87C126.759 132.224 127.169 132.393 127.615 132.377C128.053 132.369 128.453 132.195 128.812 131.856C129.072 131.612 129.255 131.324 129.362 130.992C129.477 130.669 129.483 130.323 129.383 129.955C129.276 129.595 129.046 129.227 128.694 128.851L128.381 128.517C128.088 128.204 127.771 127.981 127.434 127.852C127.096 127.737 126.759 127.716 126.422 127.787C126.093 127.866 125.787 128.038 125.504 128.305C125.221 128.571 125.046 128.852 124.977 129.148C124.9 129.45 124.907 129.74 124.994 130.018L123.411 131.508C123.18 131.048 123.054 130.552 123.034 130.024C123.013 129.495 123.108 128.973 123.317 128.459C123.526 127.945 123.856 127.475 124.307 127.051Z" fill="white"/>
<path d="M119.349 131.668L123.647 138.351L122.072 139.367L121.241 138.365C121.276 138.868 121.184 139.354 120.961 139.823C120.729 140.298 120.353 140.702 119.833 141.039C119.277 141.398 118.736 141.585 118.209 141.6C117.681 141.615 117.179 141.464 116.701 141.148C116.214 140.837 115.762 140.359 115.348 139.714L112.866 135.855L114.639 134.71L117.01 138.396C117.35 138.927 117.727 139.259 118.138 139.394C118.541 139.534 118.976 139.454 119.443 139.151C119.743 138.958 119.966 138.713 120.113 138.418C120.252 138.128 120.302 137.808 120.263 137.458C120.231 137.115 120.095 136.759 119.856 136.388L117.562 132.821L119.349 131.668Z" fill="white"/>
<path d="M107.001 138.606C107.51 138.382 107.99 138.262 108.442 138.246C108.889 138.245 109.298 138.38 109.67 138.652C110.046 138.934 110.376 139.398 110.659 140.043L112.016 143.133L113.255 142.586L113.972 144.218L112.733 144.764L113.386 146.838L111.657 147.601L110.788 145.623L108.872 146.468L108.155 144.836L110.071 143.99L108.701 140.872C108.558 140.544 108.386 140.351 108.187 140.289C107.988 140.228 107.716 140.273 107.37 140.425L106.419 140.845L105.69 139.185L107.001 138.606Z" fill="white"/>
<path d="M96.511 147.689L96.5958 149.917L98.0448 148.238L99.0767 149.482L97.2119 150.609L99.3294 151.023L98.8283 152.456L96.8403 151.411L97.548 153.545L96.0283 153.812L95.9874 151.56L94.471 153.219L93.5329 152.055L95.395 150.912L93.2437 150.488L93.7678 149.003L95.7273 150.069L95.0224 147.951L96.511 147.689Z" fill="white"/>
<path d="M82.9828 143.287L81.9241 154.279L77.4273 153.843C76.6648 153.769 76.0339 153.587 75.5349 153.296C75.0358 153.004 74.6764 152.632 74.4566 152.177C74.2253 151.732 74.1365 151.232 74.1898 150.677C74.2433 150.122 74.4083 149.669 74.6849 149.315C74.9614 148.962 75.3082 148.699 75.7253 148.528C76.1309 148.367 76.5703 148.293 77.0433 148.307L76.776 148.456C76.2767 148.386 75.8458 148.207 75.4835 147.919C75.1098 147.639 74.833 147.285 74.6529 146.856C74.4625 146.425 74.3904 145.969 74.4368 145.488C74.4933 144.901 74.6842 144.397 75.0095 143.973C75.3349 143.551 75.7765 143.234 76.3345 143.024C76.8915 142.825 77.5564 142.763 78.3294 142.837L82.9828 143.287ZM80.7012 144.81L78.5076 144.597C77.9332 144.542 77.4767 144.629 77.1381 144.861C76.7995 145.092 76.6065 145.455 76.5591 145.946C76.5117 146.439 76.6368 146.836 76.9344 147.139C77.231 147.454 77.6666 147.638 78.2411 147.694L80.4032 147.903L80.7012 144.81ZM80.2506 149.489L78.2136 149.292C77.66 149.238 77.2302 149.323 76.9239 149.548C76.6073 149.77 76.4267 150.112 76.3823 150.573C76.3389 151.023 76.4515 151.388 76.7197 151.667C76.9765 151.956 77.3869 152.128 77.951 152.183L79.9723 152.377L80.2506 149.489Z" fill="white"/>
<path d="M68.4396 140.732C69.1644 140.946 69.7698 141.305 70.2559 141.811C70.7289 142.323 71.049 142.927 71.2163 143.623C71.3707 144.327 71.3336 145.066 71.1054 145.844C70.8711 146.641 70.5005 147.288 69.9933 147.785C69.4732 148.289 68.8722 148.621 68.1906 148.782C67.5059 148.953 66.8011 148.931 66.0764 148.717C65.3415 148.5 64.7376 148.135 64.2646 147.623C63.7786 147.118 63.4584 146.514 63.3041 145.81C63.1368 145.114 63.1687 144.373 63.4 143.585C63.6313 142.799 64.007 142.153 64.5271 141.649C65.0343 141.152 65.6302 140.818 66.3148 140.648C66.9965 140.486 67.7048 140.515 68.4396 140.732ZM67.9193 142.502C67.577 142.401 67.2513 142.393 66.9421 142.477C66.6229 142.558 66.3389 142.742 66.09 143.032C65.8311 143.316 65.629 143.707 65.4837 144.2C65.3385 144.695 65.2989 145.128 65.3651 145.498C65.4182 145.875 65.557 146.185 65.7814 146.426C65.9928 146.675 66.2645 146.849 66.5966 146.947C66.9188 147.041 67.241 147.043 67.5631 146.952C67.8824 146.871 68.1715 146.688 68.4304 146.403C68.6763 146.124 68.8718 145.738 69.0171 145.243C69.1624 144.75 69.2084 144.314 69.1553 143.936C69.092 143.555 68.9534 143.246 68.739 143.007C68.5147 142.766 68.2414 142.597 67.9193 142.502Z" fill="white"/>
<path d="M58.2782 136.747C58.9499 137.094 59.4769 137.561 59.8594 138.149C60.2276 138.742 60.4286 139.395 60.462 140.11C60.4815 140.83 60.3061 141.55 59.936 142.27C59.5562 143.008 59.0707 143.574 58.4791 143.966C57.8736 144.363 57.221 144.577 56.5213 144.606C55.8169 144.645 55.1288 144.49 54.4571 144.143C53.7762 143.792 53.2515 143.319 52.8833 142.727C52.5008 142.14 52.2999 141.486 52.2805 140.765C52.2469 140.05 52.4176 139.328 52.7925 138.599C53.1675 137.87 53.6578 137.306 54.2634 136.909C54.8548 136.517 55.5027 136.301 56.2073 136.263C56.907 136.234 57.5973 136.395 58.2782 136.747ZM57.4346 138.387C57.1175 138.223 56.7991 138.153 56.4797 138.178C56.1509 138.198 55.8372 138.326 55.5387 138.561C55.2308 138.793 54.9591 139.137 54.7235 139.595C54.488 140.054 54.3679 140.471 54.3634 140.848C54.3447 141.228 54.4228 141.558 54.5977 141.838C54.7585 142.122 54.9929 142.344 55.3007 142.503C55.5993 142.657 55.9153 142.719 56.2488 142.691C56.5776 142.671 56.896 142.545 57.2039 142.314C57.4976 142.087 57.7623 141.745 57.9978 141.287C58.2334 140.829 58.3605 140.409 58.3792 140.028C58.3885 139.643 58.3105 139.313 58.1448 139.038C57.9699 138.758 57.7331 138.541 57.4346 138.387Z" fill="white"/>
<path d="M47.8001 130.206L47.8572 135.725L43.2652 136.739L41.2749 135.219L47.1119 134.025L46.0907 135.367L45.6971 128.6L47.8001 130.206ZM51.9309 133.363L45.0592 142.395L43.3693 141.103L50.241 132.071L51.9309 133.363Z" fill="white"/>
<path d="M40.8967 123.957L29.6487 127.301L28.2124 125.364L34.6635 115.549L36.006 117.36L30.8811 124.89L39.5638 122.159L40.8967 123.957ZM37.827 124.022L36.1623 124.554L32.8203 120.047L33.8186 118.616L37.827 124.022Z" fill="white"/>
<path d="M36.6197 112.001L26.288 116.821L25.4907 115.105L26.3899 114.425C26.1099 114.369 25.8354 114.277 25.5667 114.147C25.2885 114.022 25.0306 113.84 24.7931 113.603C24.5417 113.361 24.3251 113.045 24.1435 112.654C23.8291 111.976 23.7188 111.303 23.8126 110.633C23.9064 109.963 24.17 109.347 24.6035 108.785C25.0232 108.218 25.5945 107.766 26.3175 107.428C27.0405 107.091 27.7583 106.942 28.4709 106.981C29.1739 107.024 29.8068 107.227 30.3694 107.591C30.932 107.955 31.3661 108.466 31.6717 109.124C31.9198 109.658 32.0394 110.165 32.0307 110.644C32.008 111.119 31.8831 111.56 31.6558 111.968L35.7229 110.07L36.6197 112.001ZM30.2004 110.367C30.0233 109.986 29.7825 109.692 29.4784 109.486C29.17 109.27 28.8211 109.155 28.4318 109.139C28.0426 109.123 27.6434 109.211 27.2343 109.402C26.8252 109.593 26.5014 109.843 26.2626 110.151C26.0146 110.464 25.8735 110.808 25.8395 111.184C25.7916 111.554 25.8562 111.93 26.0335 112.311C26.2061 112.684 26.4515 112.975 26.7696 113.186C27.0737 113.392 27.4226 113.508 27.8163 113.533C28.2055 113.549 28.6047 113.461 29.0137 113.27C29.4228 113.079 29.7515 112.827 29.9997 112.515C30.2339 112.195 30.3702 111.854 30.4085 111.488C30.4425 111.113 30.3731 110.739 30.2004 110.367Z" fill="white"/>
<path d="M32.2084 102.058L21.1288 104.733L20.6865 102.892L21.7025 102.404C21.4386 102.294 21.1879 102.149 20.9502 101.969C20.7023 101.791 20.4853 101.562 20.2994 101.282C20.1007 100.995 19.9511 100.642 19.8503 100.222C19.6759 99.4964 19.7008 98.8144 19.9252 98.176C20.1495 97.5378 20.5297 96.9863 21.0657 96.5216C21.5889 96.049 22.2382 95.7192 23.0136 95.5321C23.789 95.3448 24.5221 95.341 25.2128 95.5204C25.8934 95.7022 26.4735 96.0273 26.9531 96.4957C27.4326 96.964 27.7572 97.551 27.9268 98.2564C28.0644 98.8289 28.0817 99.3494 27.9784 99.8179C27.8624 100.279 27.6527 100.686 27.3493 101.041L31.7107 99.9878L32.2084 102.058ZM26.239 99.1831C26.1407 98.7741 25.9628 98.4384 25.7055 98.1761C25.4456 97.9035 25.1265 97.7209 24.748 97.6284C24.3696 97.5359 23.961 97.5425 23.5223 97.6484C23.0836 97.7544 22.7169 97.9348 22.422 98.1899C22.1169 98.4474 21.9106 98.7569 21.8031 99.1181C21.683 99.4716 21.6721 99.8529 21.7704 100.262C21.8662 100.661 22.0492 100.995 22.3192 101.265C22.5765 101.528 22.8958 101.71 23.2766 101.813C23.6551 101.905 24.0636 101.899 24.5024 101.793C24.941 101.687 25.313 101.505 25.6181 101.248C25.9105 100.982 26.1117 100.674 26.2215 100.323C26.329 99.9619 26.3348 99.5818 26.239 99.1831Z" fill="white"/>
<path d="M26.4381 87.8311C26.4709 88.5876 26.3277 89.2781 26.0083 89.9025C25.6778 90.517 25.211 91.0163 24.608 91.4005C23.994 91.7747 23.2834 91.9794 22.4761 92.0146C21.6479 92.0509 20.917 91.9091 20.2833 91.5893C19.6387 91.2596 19.1303 90.7976 18.7578 90.2033C18.3748 89.6095 18.1669 88.9344 18.134 88.1779C18.1006 87.4109 18.2492 86.7202 18.5796 86.1058C18.8991 85.4813 19.3658 84.9819 19.9798 84.6078C20.5829 84.2236 21.2932 84.0136 22.111 83.9779C22.9287 83.9422 23.6599 84.0892 24.3045 84.419C24.9382 84.7387 25.4464 85.1954 25.8294 85.7893C26.2019 86.3835 26.4048 87.0641 26.4381 87.8311ZM24.5981 87.9114C24.5826 87.5543 24.485 87.2427 24.3054 86.9768C24.1253 86.7005 23.8589 86.491 23.506 86.3486C23.1527 86.1956 22.7192 86.1303 22.2055 86.1528C21.6918 86.1751 21.2708 86.2778 20.9427 86.4606C20.6036 86.6333 20.3563 86.8651 20.2009 87.1561C20.0345 87.4371 19.9589 87.7508 19.974 88.0975C19.9886 88.4338 20.0912 88.7398 20.2818 89.0158C20.4618 89.2921 20.7285 89.5068 21.0818 89.6598C21.4242 89.8027 21.8521 89.8629 22.3658 89.8405C22.8795 89.8181 23.306 89.7205 23.6451 89.5478C23.9838 89.3646 24.2311 89.1327 24.387 88.8523C24.5423 88.5612 24.6128 88.2477 24.5981 87.9114Z" fill="white"/>
<path d="M26.3056 80.578L18.4078 79.8247L18.6092 77.7047L26.5069 78.458L26.3056 80.578ZM17.428 78.6537C17.3922 79.0306 17.2526 79.3342 17.0094 79.5645C16.7567 79.7834 16.458 79.8764 16.1133 79.8435C15.7684 79.8106 15.4978 79.6633 15.3013 79.4016C15.0954 79.1284 15.0102 78.8034 15.046 78.4264C15.0828 78.0392 15.2276 77.7361 15.4804 77.5171C15.7235 77.2868 16.0175 77.1881 16.3623 77.221C16.707 77.2538 16.9824 77.4069 17.1884 77.6801C17.3848 77.9418 17.4648 78.2663 17.428 78.6537Z" fill="white"/>
<path d="M26.7831 75.3658L19.0596 73.5486L19.4877 71.7211L20.7803 71.8633C20.4063 71.5268 20.1369 71.1124 19.9721 70.6198C19.8096 70.1171 19.7991 69.5637 19.9407 68.9597C20.0918 68.3147 20.3516 67.8033 20.7204 67.4256C21.0892 67.0479 21.5554 66.8065 22.1189 66.7014C22.6849 66.5861 23.3408 66.6162 24.0866 66.7917L28.546 67.8409L28.0639 69.8987L23.8037 68.8963C23.1907 68.7521 22.6895 68.7747 22.3003 68.9639C21.9134 69.1429 21.6565 69.5038 21.5293 70.0464C21.4478 70.3945 21.4563 70.726 21.5551 71.0409C21.6561 71.3455 21.8419 71.6107 22.1125 71.8363C22.3728 72.0596 22.7175 72.2217 23.1465 72.3227L27.2688 73.2926L26.7831 75.3658Z" fill="white"/>
<path d="M30.8603 61.7884C30.6492 62.3041 30.3865 62.7247 30.0719 63.05C29.7516 63.3617 29.3632 63.5488 28.9066 63.6113C28.4404 63.6698 27.882 63.5654 27.2314 63.2981L24.1146 62.0175L23.6011 63.2727L21.9552 62.5966L22.4688 61.3413L20.563 60.3026L21.2795 58.5512L23.2749 59.3709L24.0691 57.4297L25.7148 58.1058L24.9207 60.0471L28.0667 61.3396C28.3968 61.4753 28.6548 61.496 28.8407 61.4019C29.0267 61.3078 29.1913 61.0857 29.3346 60.7353L29.7287 59.7721L31.4037 60.4602L30.8603 61.7884Z" fill="white"/>
<path d="M32.3779 57.7299L25.793 53.2955L26.8378 51.7375L27.8098 52.183C27.6366 51.7623 27.5728 51.3202 27.6181 50.8566C27.6607 50.3784 27.8311 49.9168 28.1297 49.4715C28.3521 49.1399 28.5946 48.8724 28.8573 48.6692C29.1199 48.466 29.4014 48.3197 29.7015 48.2304C30.0075 48.1323 30.3307 48.1029 30.6711 48.1421C30.4778 47.6572 30.4128 47.151 30.4758 46.6232C30.5389 46.0955 30.7254 45.6004 31.0357 45.1377C31.422 44.5616 31.8615 44.1608 32.3542 43.9351C32.8382 43.7035 33.3624 43.6383 33.9267 43.7396C34.4967 43.8321 35.0997 44.0924 35.7355 44.5206L39.5245 47.0721L38.348 48.8266L34.7159 46.3806C34.1933 46.0287 33.7224 45.8637 33.3032 45.8855C32.8898 45.8985 32.5398 46.1189 32.253 46.5466C32.0656 46.826 31.9686 47.1216 31.9616 47.4337C31.9546 47.7457 32.0409 48.0508 32.2202 48.3491C32.4053 48.6385 32.6809 48.9064 33.0467 49.1528L36.5482 51.5107L35.3629 53.2783L31.7308 50.8323C31.2082 50.4804 30.7373 50.3154 30.3182 50.3371C29.899 50.3589 29.543 50.588 29.2504 51.0245C29.0689 51.2951 28.9747 51.5864 28.9677 51.8984C28.9666 52.2018 29.0557 52.5025 29.2351 52.8007C29.4203 53.0902 29.6958 53.358 30.0616 53.6044L33.5632 55.9624L32.3779 57.7299Z" fill="white"/>
<path d="M44.5576 42.4852C43.9758 43.0318 43.3443 43.3946 42.6629 43.5735C41.982 43.7376 41.3071 43.7159 40.6382 43.5083C39.9697 43.2859 39.3591 42.8792 38.8064 42.2886C38.2393 41.6825 37.8629 41.0342 37.6772 40.3437C37.4843 39.6457 37.4879 38.9575 37.6878 38.2795C37.8883 37.5866 38.2832 36.9632 38.8727 36.4093C39.4467 35.8698 40.0666 35.5252 40.7322 35.3756C41.3977 35.2259 42.0502 35.2544 42.6894 35.461C43.3287 35.6676 43.9032 36.0433 44.4128 36.5879C44.4846 36.6646 44.5671 36.7529 44.6604 36.8526C44.7466 36.9446 44.8287 37.0478 44.9067 37.1619L40.2102 41.575L39.3273 40.6314L42.4851 37.6641C42.1105 37.3097 41.7001 37.1403 41.2542 37.1557C40.8159 37.1639 40.4168 37.337 40.057 37.6751C39.7968 37.9196 39.613 38.2076 39.5059 38.539C39.3915 38.8627 39.3841 39.2084 39.4837 39.5762C39.591 39.9368 39.8204 40.305 40.1721 40.6809L40.4844 41.0146C40.7786 41.3291 41.0945 41.5514 41.4319 41.6813C41.7697 41.7963 42.1067 41.8184 42.4431 41.7473C42.7723 41.6687 43.0785 41.4962 43.3617 41.2302C43.645 40.964 43.821 40.6832 43.89 40.3879C43.9665 40.0852 43.9609 39.7949 43.8733 39.5168L45.458 38.0278C45.6882 38.4891 45.8134 38.9842 45.8335 39.513C45.8536 40.042 45.7589 40.5634 45.5494 41.0775C45.3398 41.5915 45.0092 42.0608 44.5576 42.4852Z" fill="white"/>
<path d="M49.5188 37.872L45.2261 31.1859L46.8013 30.1702L47.6322 31.1727C47.5967 30.6703 47.6904 30.1847 47.9135 29.7157C48.1453 29.2412 48.5216 28.836 49.0423 28.5003C49.5983 28.1418 50.1398 27.9551 50.6669 27.9404C51.1941 27.9257 51.6967 28.0769 52.1747 28.3939C52.6616 28.7052 53.1123 29.1837 53.5268 29.8293L56.0053 33.6897L54.2314 34.8335L51.8636 31.1454C51.5229 30.6148 51.1471 30.2819 50.7359 30.1469C50.3336 30.0062 49.8985 30.0866 49.4308 30.3881C49.1307 30.5816 48.907 30.8259 48.7595 31.1211C48.6209 31.4105 48.5706 31.7305 48.6085 32.0812C48.6409 32.423 48.7762 32.7797 49.0147 33.1511L51.3058 36.7197L49.5188 37.872Z" fill="white"/>
<path d="M61.8725 30.9432C61.3633 31.1674 60.8828 31.287 60.4309 31.302C59.9845 31.3033 59.5753 31.1675 59.2036 30.8946C58.8277 30.6122 58.4983 30.1484 58.2155 29.5033L56.8609 26.4125L55.6216 26.958L54.9062 25.326L56.1456 24.7804L55.4946 22.7065L57.224 21.9453L58.0913 23.9241L60.0081 23.0804L60.7234 24.7124L58.8066 25.5561L60.1739 28.6758C60.3174 29.0031 60.4886 29.1977 60.6876 29.2594C60.8866 29.3211 61.159 29.2759 61.5049 29.1237L62.4561 28.705L63.1841 30.3659L61.8725 30.9432Z" fill="white"/>
<path d="M72.3689 21.8673L72.286 19.6403L70.8356 21.318L69.8046 20.0727L71.6704 18.947L69.5532 18.5313L70.0555 17.0989L72.0426 18.1455L71.3366 16.011L72.8565 15.7461L72.8955 17.9968L74.4133 16.3394L75.3506 17.5049L73.4875 18.6462L75.6385 19.072L75.1133 20.5565L73.1545 19.4888L73.8577 21.6079L72.3689 21.8673Z" fill="white"/>
<path d="M83.7475 119.495C102.938 119.495 118.495 103.938 118.495 84.7475C118.495 65.557 102.938 50 83.7475 50C64.557 50 49 65.557 49 84.7475C49 103.938 64.557 119.495 83.7475 119.495Z" fill="#3F96D5"/>
<path d="M75.8339 95.0829C75.8339 94.6873 75.5866 91.7954 80.922 91.3998C80.922 91.3998 81.4156 92.5369 81.4156 93.9215C81.4156 95.3061 80.3534 97.5306 78.1053 97.5306C75.8572 97.5306 75.8329 95.4785 75.8329 95.0829M87.3798 93.9205C87.3798 92.5359 87.8734 91.3988 87.8734 91.3988C93.2088 91.7944 92.9615 94.6863 92.9615 95.0819C92.9615 95.4775 92.9372 97.5295 90.6891 97.5295C88.441 97.5295 87.3788 95.305 87.3788 93.9205M71.6506 90.4235C71.6506 88.4212 73.9473 87.6977 75.5591 87.6977C77.171 87.6977 79.0787 89.0135 79.0787 89.0135C79.0787 89.0135 74.8795 89.1838 73.5954 92.9071C73.5954 92.9071 71.6506 92.4248 71.6506 90.4225M89.6829 89.0135C89.6829 89.0135 91.5906 87.6977 93.2024 87.6977C94.8143 87.6977 97.111 88.4212 97.111 90.4235C97.111 92.4258 95.1662 92.9082 95.1662 92.9082C94.0734 89.333 89.6829 89.0146 89.6829 89.0146M86.3916 88.619L82.2907 88.6433C80.4379 85.8995 77.301 85.0586 75.3499 85.0586C73.3988 85.0586 69.002 86.22 69.002 90.5219C69.002 94.8238 73.1271 95.5155 73.1271 95.5155C73.1271 96.0349 73.4728 100.212 78.1169 100.212C82.761 100.212 84.0949 95.9355 84.0949 93.9331C84.0949 91.9308 83.6256 91.1893 83.6256 91.1893H85.0831C85.0831 91.1893 84.6635 91.5606 84.6635 93.8348C84.6635 96.1089 86.121 100.188 90.8392 100.188C95.5573 100.188 95.6313 95.4658 95.6313 95.4658C98.151 94.9221 99.7311 92.8944 99.7311 90.5462C99.7311 88.198 97.7546 85.0586 93.3092 85.0586C88.8638 85.0586 86.3927 88.6179 86.3927 88.6179" fill="white"/>
<mask id="mask0_66_2447" style="mask-type:luminance" maskUnits="userSpaceOnUse" x="69" y="85" width="31" height="16">
<path d="M75.8339 95.0829C75.8339 94.6873 75.5866 91.7954 80.922 91.3998C80.922 91.3998 81.4156 92.5369 81.4156 93.9215C81.4156 95.3061 80.3534 97.5306 78.1053 97.5306C75.8572 97.5306 75.8329 95.4785 75.8329 95.0829M87.3798 93.9205C87.3798 92.5359 87.8734 91.3988 87.8734 91.3988C93.2088 91.7944 92.9615 94.6863 92.9615 95.0819C92.9615 95.4775 92.9372 97.5295 90.6891 97.5295C88.441 97.5295 87.3788 95.305 87.3788 93.9205M71.6506 90.4235C71.6506 88.4212 73.9473 87.6977 75.5591 87.6977C77.171 87.6977 79.0787 89.0135 79.0787 89.0135C79.0787 89.0135 74.8795 89.1838 73.5954 92.9071C73.5954 92.9071 71.6506 92.4248 71.6506 90.4225M89.6829 89.0135C89.6829 89.0135 91.5906 87.6977 93.2024 87.6977C94.8143 87.6977 97.111 88.4212 97.111 90.4235C97.111 92.4258 95.1662 92.9082 95.1662 92.9082C94.0734 89.333 89.6829 89.0146 89.6829 89.0146M86.3916 88.619L82.2907 88.6433C80.4379 85.8995 77.301 85.0586 75.3499 85.0586C73.3988 85.0586 69.002 86.22 69.002 90.5219C69.002 94.8238 73.1271 95.5155 73.1271 95.5155C73.1271 96.0349 73.4728 100.212 78.1169 100.212C82.761 100.212 84.0949 95.9355 84.0949 93.9331C84.0949 91.9308 83.6256 91.1893 83.6256 91.1893H85.0831C85.0831 91.1893 84.6635 91.5606 84.6635 93.8348C84.6635 96.1089 86.121 100.188 90.8392 100.188C95.5573 100.188 95.6313 95.4658 95.6313 95.4658C98.151 94.9221 99.7311 92.8944 99.7311 90.5462C99.7311 88.198 97.7546 85.0586 93.3092 85.0586C88.8638 85.0586 86.3927 88.6179 86.3927 88.6179" fill="white"/>
</mask>
<g mask="url(#mask0_66_2447)">
<path d="M99.73 85.0586H69.002V100.212H99.73V85.0586Z" fill="white"/>
</g>
<path d="M71.6201 78.7895C71.6201 76.7872 73.5649 76.3048 73.5649 76.3048C74.6577 79.8801 79.0482 80.1984 79.0482 80.1984C79.0482 80.1984 77.1405 81.5143 75.5286 81.5143C73.9168 81.5143 71.6201 80.7908 71.6201 78.7885M89.6524 80.1984C89.6524 80.1984 93.8516 80.0281 95.1357 76.3048C95.1357 76.3048 97.0805 76.7872 97.0805 78.7895C97.0805 80.7918 94.7838 81.5153 93.172 81.5153C91.5601 81.5153 89.6524 80.1995 89.6524 80.1995M75.7696 74.129C75.7696 73.7334 75.7939 71.6814 78.042 71.6814C80.2901 71.6814 81.3523 73.9059 81.3523 75.2905C81.3523 76.6751 80.8587 77.8121 80.8587 77.8121C75.5234 77.4165 75.7707 74.5246 75.7707 74.129M87.3166 75.2915C87.3166 73.9069 88.3788 71.6825 90.6269 71.6825C92.875 71.6825 92.8993 73.7345 92.8993 74.1301C92.8993 74.5257 93.1466 77.4176 87.8112 77.8132C87.8112 77.8132 87.3176 76.6761 87.3176 75.2915M90.6152 69C85.9711 69 84.6373 73.2765 84.6373 75.2788C84.6373 77.2812 85.1065 78.0226 85.1065 78.0226H83.649C83.649 78.0226 84.0686 77.6514 84.0686 75.3772C84.0686 73.103 82.6111 69.0243 77.893 69.0243C73.1749 69.0243 73.1009 73.7461 73.1009 73.7461C70.5812 74.2898 69 76.3175 69 78.6658C69 81.014 70.9765 84.1534 75.4219 84.1534C79.8673 84.1534 82.3384 80.594 82.3384 80.594L86.4393 80.5697C88.2921 83.3135 91.4291 84.1544 93.3802 84.1544C95.3313 84.1544 99.7281 82.993 99.7281 78.6911C99.7281 74.3893 95.6029 73.6975 95.6029 73.6975C95.6029 73.1781 95.2573 69.0011 90.6131 69.0011L90.6152 69Z" fill="white"/>
<mask id="mask1_66_2447" style="mask-type:luminance" maskUnits="userSpaceOnUse" x="69" y="69" width="31" height="16">
<path d="M71.6201 78.7895C71.6201 76.7872 73.5649 76.3048 73.5649 76.3048C74.6577 79.8801 79.0482 80.1984 79.0482 80.1984C79.0482 80.1984 77.1405 81.5143 75.5286 81.5143C73.9168 81.5143 71.6201 80.7908 71.6201 78.7885M89.6524 80.1984C89.6524 80.1984 93.8516 80.0281 95.1357 76.3048C95.1357 76.3048 97.0805 76.7872 97.0805 78.7895C97.0805 80.7918 94.7838 81.5153 93.172 81.5153C91.5601 81.5153 89.6524 80.1995 89.6524 80.1995M75.7696 74.129C75.7696 73.7334 75.7939 71.6814 78.042 71.6814C80.2901 71.6814 81.3523 73.9059 81.3523 75.2905C81.3523 76.6751 80.8587 77.8121 80.8587 77.8121C75.5234 77.4165 75.7707 74.5246 75.7707 74.129M87.3166 75.2915C87.3166 73.9069 88.3788 71.6825 90.6269 71.6825C92.875 71.6825 92.8993 73.7345 92.8993 74.1301C92.8993 74.5257 93.1466 77.4176 87.8112 77.8132C87.8112 77.8132 87.3176 76.6761 87.3176 75.2915M90.6152 69C85.9711 69 84.6373 73.2765 84.6373 75.2788C84.6373 77.2812 85.1065 78.0226 85.1065 78.0226H83.649C83.649 78.0226 84.0686 77.6514 84.0686 75.3772C84.0686 73.103 82.6111 69.0243 77.893 69.0243C73.1749 69.0243 73.1009 73.7461 73.1009 73.7461C70.5812 74.2898 69 76.3175 69 78.6658C69 81.014 70.9765 84.1534 75.4219 84.1534C79.8673 84.1534 82.3384 80.594 82.3384 80.594L86.4393 80.5697C88.2921 83.3135 91.4291 84.1544 93.3802 84.1544C95.3313 84.1544 99.7281 82.993 99.7281 78.6911C99.7281 74.3893 95.6029 73.6975 95.6029 73.6975C95.6029 73.1781 95.2573 69.0011 90.6131 69.0011L90.6152 69Z" fill="white"/>
</mask>
<g mask="url(#mask1_66_2447)">
<path d="M99.73 69H69.002V84.1534H99.73V69Z" fill="white"/>
</g>
</g>
<defs>
<clipPath id="clip0_66_2447">
<rect width="167.9" height="167.9" fill="white" transform="translate(0.100098 0.550781)"/>
</clipPath>
</defs>
</svg>
