<svg width="130" height="130" viewBox="0 0 130 130" fill="none" xmlns="http://www.w3.org/2000/svg">
<g clip-path="url(#clip0_66_2789)">
<path d="M65 2C99.7939 2 128 30.2061 128 65C128 99.7939 99.7939 128 65 128C30.2061 128 2 99.7939 2 65C2 30.2061 30.2061 2 65 2Z" fill="#3E97D4" stroke="white" stroke-width="4"/>
<path d="M70.646 18.7001C69.7379 18.5973 68.9777 18.318 68.3654 17.8621C67.7627 17.3988 67.3246 16.8037 67.0509 16.077C66.7869 15.3428 66.7083 14.5222 66.8153 13.6152C66.9222 12.7083 67.1895 11.9268 67.6174 11.271C68.0539 10.6161 68.6195 10.1304 69.3141 9.81394C70.0173 9.49845 70.823 9.39212 71.7311 9.49494C72.8294 9.6193 73.6974 9.98814 74.335 10.6014C74.9726 11.2147 75.3204 12.0186 75.3785 13.0129L73.4715 12.797C73.415 12.3096 73.2206 11.914 72.8884 11.6101C72.5658 11.2987 72.1147 11.1102 71.5353 11.0446C70.9991 10.9839 70.5214 11.0586 70.1022 11.2689C69.6927 11.4716 69.3572 11.79 69.0957 12.2243C68.8352 12.65 68.6675 13.1807 68.5925 13.8165C68.5186 14.4437 68.5584 14.9979 68.712 15.4791C68.8656 15.9604 69.1182 16.3454 69.4698 16.6343C69.83 16.9242 70.2782 17.0995 70.8144 17.1602C71.3939 17.2258 71.8754 17.1558 72.2589 16.9501C72.6435 16.736 72.9185 16.4107 73.0838 15.9741L75.0038 16.1915C74.7219 17.0959 74.1998 17.7711 73.4373 18.2173C72.6748 18.6636 71.7444 18.8245 70.646 18.7001Z" fill="white"/>
<path d="M80.4283 20.7658C79.8351 20.5674 79.3459 20.2551 78.9608 19.8288C78.5867 19.3971 78.3425 18.8963 78.2282 18.3261C78.125 17.7507 78.1816 17.152 78.3981 16.5302C78.6202 15.8923 78.9501 15.3805 79.3879 14.995C79.8368 14.6041 80.3465 14.3554 80.9172 14.2487C81.4907 14.1339 82.074 14.1757 82.6673 14.3741C83.2688 14.5753 83.7565 14.8917 84.1306 15.3233C84.5157 15.7496 84.7599 16.2505 84.8631 16.8259C84.9774 17.3961 84.9249 17.9961 84.7056 18.626C84.4863 19.2558 84.1523 19.7662 83.7035 20.1571C83.2657 20.5426 82.7601 20.7927 82.1866 20.9075C81.6159 21.0142 81.0298 20.9669 80.4283 20.7658ZM80.9217 19.3486C81.2019 19.4422 81.4715 19.4603 81.7308 19.4027C81.9982 19.3479 82.2401 19.2079 82.4565 18.9828C82.6811 18.7604 82.8623 18.4513 83 18.0556C83.1378 17.6599 83.1857 17.3108 83.1439 17.0083C83.113 16.7005 83.0089 16.4448 82.8314 16.2412C82.665 16.0322 82.4458 15.8823 82.1739 15.7914C81.9102 15.7032 81.6433 15.6906 81.373 15.7535C81.1055 15.8083 80.8595 15.9469 80.6349 16.1693C80.4213 16.3864 80.2457 16.6928 80.1079 17.0885C79.9702 17.4842 79.9167 17.8359 79.9475 18.1438C79.9866 18.4543 80.0907 18.71 80.26 18.9109C80.4375 19.1145 80.6581 19.2604 80.9217 19.3486Z" fill="white"/>
<path d="M86.4028 22.8284L89.6872 17.2383L91.0339 17.9983L90.6127 18.9717C90.9687 18.7591 91.3616 18.646 91.7915 18.6326C92.2288 18.6235 92.6701 18.7445 93.1152 18.9957C93.5905 19.264 93.9339 19.5858 94.1454 19.9611C94.3568 20.3364 94.4369 20.7558 94.3857 21.2192C94.342 21.6868 94.1616 22.1906 93.8444 22.7303L91.9481 25.958L90.4316 25.1021L92.2433 22.0187C92.5039 21.575 92.6057 21.1795 92.5486 20.8322C92.499 20.4892 92.2742 20.2048 91.8744 19.9791C91.6179 19.8343 91.353 19.7636 91.0798 19.767C90.8141 19.7746 90.5595 19.8574 90.316 20.0153C90.0769 20.1659 89.866 20.3965 89.6836 20.707L87.9306 23.6906L86.4028 22.8284Z" fill="white"/>
<path d="M96.4734 29.3607C96.1165 29.0741 95.8475 28.7698 95.6665 28.4479C95.4977 28.1248 95.444 27.7783 95.5056 27.4086C95.5726 27.0322 95.791 26.6229 96.1607 26.1807L97.9321 24.0622L97.0634 23.3645L97.9987 22.2459L98.8674 22.9436L100.153 21.709L101.365 22.6825L100.231 24.0387L101.575 25.1177L100.639 26.2363L99.2957 25.1574L97.5078 27.2957C97.3202 27.5201 97.241 27.7157 97.2703 27.8827C97.2995 28.0496 97.4354 28.2304 97.6778 28.4251L98.3445 28.9605L97.3926 30.099L96.4734 29.3607Z" fill="white"/>
<path d="M100.707 33.5089C100.343 33.1066 100.108 32.7179 100.001 32.3429C99.9015 31.9623 99.9046 31.6119 100.011 31.2917C100.129 30.9723 100.325 30.6938 100.599 30.4561C100.898 30.1958 101.229 30.04 101.589 29.9888C101.956 29.944 102.34 30.0151 102.742 30.2021C103.149 30.3954 103.561 30.722 103.977 31.1818L105.059 32.3791C105.3 32.1697 105.47 31.9652 105.569 31.7655C105.674 31.5602 105.705 31.3565 105.662 31.1545C105.619 30.9525 105.496 30.7397 105.294 30.5162C105.075 30.2736 104.832 30.1141 104.565 30.0379C104.311 29.9624 104.056 30.0017 103.799 30.1558L102.665 28.901C103.045 28.6273 103.45 28.4759 103.877 28.4468C104.316 28.4184 104.752 28.5016 105.184 28.6964C105.622 28.8976 106.02 29.1961 106.378 29.5921C106.788 30.0455 107.065 30.5061 107.209 30.974C107.353 31.4419 107.359 31.8926 107.227 32.326C107.096 32.7595 106.815 33.163 106.385 33.5365L103.336 36.1849L102.348 35.0929L102.971 34.2956C102.777 34.3386 102.585 34.3574 102.394 34.3522C102.203 34.3469 102.011 34.3144 101.817 34.2546C101.623 34.1948 101.435 34.102 101.251 33.9763C101.061 33.8563 100.88 33.7005 100.707 33.5089ZM102 32.9326C102.15 33.0986 102.312 33.2201 102.487 33.2968C102.673 33.3744 102.862 33.4157 103.053 33.421C103.25 33.4206 103.44 33.3865 103.623 33.3187C103.818 33.2517 104.006 33.157 104.186 33.0347L104.196 33.0262L103.304 32.0396C103.125 31.8416 102.952 31.7014 102.784 31.619C102.629 31.5372 102.48 31.5073 102.336 31.529C102.193 31.5508 102.063 31.6126 101.946 31.7144C101.815 31.8276 101.734 31.9497 101.701 32.0808C101.668 32.2118 101.678 32.3514 101.731 32.4996C101.783 32.6478 101.873 32.7921 102 32.9326Z" fill="white"/>
<path d="M106.549 41.0933C106.208 40.5378 106.031 39.9696 106.02 39.3887C106.008 38.8078 106.148 38.2668 106.44 37.7659C106.732 37.2649 107.161 36.8471 107.728 36.5125C108.309 36.169 108.894 35.988 109.483 35.9694C110.078 35.9464 110.635 36.0757 111.154 36.3572C111.68 36.6343 112.114 37.0506 112.455 37.6061C112.891 38.3151 113.067 39.023 112.983 39.73C112.899 40.4369 112.566 41.0521 111.983 41.5755L111.019 40.0078C111.24 39.7879 111.36 39.5279 111.379 39.2279C111.402 38.9352 111.326 38.6463 111.151 38.3613C110.994 38.1055 110.785 37.9149 110.525 37.7895C110.277 37.667 109.99 37.6221 109.665 37.6549C109.351 37.6905 109.023 37.8096 108.68 38.0122C108.419 38.1663 108.204 38.3379 108.036 38.5269C107.875 38.7116 107.756 38.9064 107.679 39.1114C107.609 39.312 107.586 39.5147 107.61 39.7196C107.639 39.9317 107.712 40.1328 107.829 40.3228C107.945 40.5128 108.085 40.6648 108.246 40.7787C108.412 40.8998 108.588 40.98 108.775 41.0192C108.969 41.054 109.169 41.0404 109.375 40.9786L110.339 42.5464C109.609 42.7979 108.9 42.7933 108.211 42.5325C107.534 42.2747 106.98 41.795 106.549 41.0933Z" fill="white"/>
<path d="M110.522 48.6558C110.351 48.2357 110.266 47.8419 110.267 47.4743C110.278 47.1115 110.403 46.7828 110.639 46.4884C110.883 46.1908 111.277 45.9362 111.818 45.7245L114.414 44.7103L113.999 43.6878L115.369 43.1523L115.785 44.1748L117.52 43.7038L118.1 45.1305L116.438 45.7798L117.081 47.3611L115.71 47.8966L115.067 46.3153L112.447 47.339C112.172 47.4464 112.006 47.5801 111.949 47.7401C111.893 47.9001 111.922 48.1227 112.038 48.408L112.357 49.1927L110.962 49.7377L110.522 48.6558Z" fill="white"/>
<path d="M113.138 59.2979C113.079 58.7806 113.137 58.3235 113.311 57.9268C113.494 57.5376 113.787 57.2224 114.189 56.9811C114.599 56.7389 115.12 56.5833 115.752 56.5144L119.555 56.0996L119.75 57.8169L116.129 58.2118C115.601 58.2694 115.215 58.4188 114.971 58.6601C114.727 58.9098 114.631 59.2594 114.682 59.7089C114.715 59.9972 114.809 60.2445 114.964 60.4509C115.127 60.6563 115.342 60.8089 115.607 60.9087C115.882 61.0161 116.206 61.0495 116.578 61.0089L120.069 60.6281L120.262 62.3326L113.721 63.0461L113.551 61.5451L114.599 61.2891C114.206 61.1431 113.876 60.9001 113.61 60.5599C113.352 60.2189 113.195 59.7982 113.138 59.2979Z" fill="white"/>
<path d="M113.467 68.5416C113.508 67.9542 113.64 67.4499 113.861 67.0287C114.083 66.6074 114.371 66.2848 114.728 66.0608C115.084 65.8368 115.476 65.7221 115.904 65.7168L115.783 67.4278C115.615 67.4592 115.458 67.5213 115.312 67.6141C115.175 67.7075 115.061 67.8366 114.971 68.0016C114.881 68.1666 114.827 68.3682 114.811 68.6066C114.794 68.8364 114.812 69.0258 114.862 69.1746C114.922 69.324 115.005 69.4365 115.113 69.5122C115.221 69.5965 115.336 69.6427 115.457 69.6509C115.64 69.6632 115.782 69.6215 115.885 69.5258C115.996 69.4307 116.089 69.2873 116.164 69.0956C116.238 68.9039 116.316 68.6697 116.396 68.3928C116.479 68.0905 116.574 67.7933 116.681 67.5012C116.797 67.2182 116.933 66.9665 117.088 66.7461C117.243 66.5256 117.434 66.3546 117.661 66.233C117.887 66.1115 118.161 66.0615 118.483 66.0832C118.874 66.1096 119.214 66.2352 119.504 66.46C119.802 66.6854 120.028 67 120.183 67.4039C120.338 67.8078 120.396 68.2864 120.357 68.8397C120.303 69.6143 120.082 70.2152 119.694 70.6424C119.306 71.0695 118.797 71.3045 118.165 71.3475L118.279 69.7258C118.483 69.6882 118.647 69.5839 118.773 69.4127C118.906 69.2507 118.983 69.0249 119.003 68.7355C119.025 68.4291 118.985 68.1912 118.883 68.0218C118.782 67.8525 118.64 67.7616 118.457 67.7493C118.336 67.7411 118.224 67.7849 118.121 67.8806C118.018 67.9848 117.924 68.1324 117.841 68.3235C117.767 68.5152 117.689 68.7495 117.608 69.0263C117.47 69.513 117.317 69.9389 117.152 70.3041C116.996 70.6698 116.784 70.9506 116.517 71.1465C116.259 71.3429 115.895 71.4252 115.426 71.3936C115.009 71.3655 114.644 71.2296 114.329 70.986C114.023 70.743 113.794 70.4111 113.64 69.9902C113.486 69.5778 113.428 69.0949 113.467 68.5416Z" fill="white"/>
<path d="M115.745 81.9762L117.386 82.8021L116.764 81.1074L118.082 80.8711L118.136 82.641L119.296 81.305L120.126 82.2302L118.564 83.2233L120.391 83.5707L119.965 84.7534L118.325 83.887L118.905 85.6215L117.683 85.823L117.615 84.0488L116.434 85.4047L115.576 84.4426L117.142 83.478L115.327 83.1348L115.745 81.9762Z" fill="white"/>
<path d="M104.242 93.5336C104.788 92.8151 105.416 92.3105 106.125 92.0198C106.836 91.7411 107.581 91.6679 108.36 91.8002C109.141 91.9444 109.904 92.2893 110.651 92.8347C111.399 93.3801 111.954 93.9986 112.319 94.6903C112.678 95.3888 112.823 96.1119 112.754 96.8596C112.68 97.6141 112.37 98.3506 111.824 99.0691C111.164 99.9382 110.403 100.49 109.542 100.723C108.681 100.956 107.797 100.848 106.89 100.398L108.036 98.8893C108.495 99.0858 108.942 99.1193 109.377 98.99C109.813 98.8725 110.206 98.5846 110.554 98.1261C110.877 97.7018 111.05 97.2593 111.075 96.7984C111.101 96.3495 110.988 95.9053 110.736 95.4659C110.491 95.0315 110.106 94.6231 109.583 94.2409C109.066 93.8637 108.557 93.6196 108.055 93.5085C107.553 93.3975 107.087 93.4186 106.655 93.5719C106.219 93.732 105.839 94.0242 105.517 94.4485C105.168 94.9069 104.989 95.3504 104.978 95.7787C104.974 96.2122 105.124 96.6085 105.426 96.9676L104.271 98.4867C103.614 97.7943 103.28 97.0129 103.268 96.1426C103.257 95.2723 103.581 94.4026 104.242 93.5336Z" fill="white"/>
<path d="M97.5138 100.804C97.9856 100.399 98.5061 100.14 99.0753 100.026C99.6436 99.9246 100.209 99.9675 100.77 100.155C101.33 100.355 101.831 100.702 102.272 101.196C102.725 101.704 103.012 102.24 103.134 102.804C103.256 103.38 103.221 103.937 103.03 104.475C102.845 105.019 102.516 105.494 102.045 105.898C101.566 106.308 101.043 106.564 100.475 106.666C99.9052 106.78 99.3405 106.737 98.7803 106.537C98.2193 106.35 97.7152 106.005 97.2681 105.504C96.8209 105.004 96.5367 104.465 96.4155 103.889C96.2935 103.324 96.325 102.77 96.5101 102.226C96.701 101.688 97.0355 101.214 97.5138 100.804ZM98.52 101.931C98.2972 102.122 98.1465 102.342 98.0679 102.591C97.9827 102.845 97.9855 103.12 98.0764 103.417C98.1608 103.718 98.3434 104.027 98.6243 104.341C98.9053 104.656 99.1898 104.871 99.4781 104.987C99.7656 105.114 100.044 105.154 100.312 105.105C100.58 105.068 100.822 104.957 101.039 104.771C101.248 104.591 101.393 104.371 101.472 104.11C101.557 103.856 101.558 103.578 101.473 103.276C101.388 102.986 101.205 102.684 100.924 102.369C100.643 102.055 100.359 101.833 100.072 101.706C99.7775 101.584 99.4995 101.544 99.2374 101.588C98.9688 101.637 98.7296 101.751 98.52 101.931Z" fill="white"/>
<path d="M92.7067 104.85L96.0148 110.427L94.6713 111.192L94.0202 110.349C94.0309 110.758 93.935 111.148 93.7327 111.52C93.5228 111.896 93.1959 112.211 92.7518 112.464C92.2776 112.734 91.8219 112.865 91.3845 112.858C90.947 112.851 90.5362 112.71 90.1518 112.435C89.7599 112.165 89.4042 111.761 89.0848 111.222L87.1748 108.002L88.6876 107.14L90.5123 110.216C90.7748 110.659 91.074 110.942 91.4097 111.067C91.7379 111.196 92.1014 111.147 92.5003 110.919C92.7562 110.773 92.9507 110.584 93.0839 110.35C93.2096 110.12 93.2633 109.863 93.2449 109.577C93.2309 109.299 93.132 109.005 92.9482 108.695L91.1826 105.719L92.7067 104.85Z" fill="white"/>
<path d="M81.9021 110.149C82.3337 109.989 82.737 109.913 83.112 109.92C83.482 109.938 83.815 110.065 84.1111 110.302C84.4104 110.547 84.6631 110.937 84.8693 111.472L85.8575 114.034L86.908 113.645L87.4298 114.998L86.3793 115.387L86.8286 117.095L85.3628 117.638L84.7302 115.998L83.1055 116.6L82.5838 115.247L84.2084 114.645L83.211 112.059C83.1064 111.787 82.9729 111.623 82.8108 111.564C82.6486 111.506 82.4209 111.531 82.1277 111.639L81.3215 111.938L80.7905 110.561L81.9021 110.149Z" fill="white"/>
<path d="M76.0958 111.673C76.6334 111.566 77.0944 111.562 77.4788 111.659C77.8649 111.766 78.1726 111.944 78.402 112.195C78.6245 112.455 78.7721 112.761 78.8446 113.112C78.924 113.497 78.8958 113.855 78.76 114.187C78.6156 114.52 78.3602 114.81 77.9936 115.057C77.6186 115.305 77.1239 115.491 76.5095 115.612L74.9095 115.93C74.9734 116.239 75.0687 116.486 75.1955 116.67C75.324 116.862 75.4882 116.99 75.6881 117.055C75.888 117.12 76.1373 117.123 76.436 117.063C76.7602 116.999 77.0229 116.873 77.2239 116.685C77.4182 116.507 77.5115 116.271 77.504 115.977L79.1808 115.644C79.2313 116.104 79.1623 116.523 78.9736 116.9C78.7782 117.287 78.4861 117.614 78.0974 117.883C77.7002 118.153 77.2371 118.341 76.708 118.446C76.1022 118.566 75.5567 118.57 75.0715 118.457C74.5864 118.344 74.1855 118.123 73.8689 117.794C73.5522 117.466 73.337 117.025 73.223 116.473L72.415 112.559L73.8741 112.27L74.2656 113.198C74.3249 113.012 74.4047 112.839 74.5051 112.68C74.6055 112.521 74.7306 112.374 74.8806 112.24C75.0305 112.106 75.207 111.992 75.4099 111.9C75.6112 111.799 75.8398 111.723 76.0958 111.673ZM75.9556 113.058C75.7337 113.102 75.5452 113.179 75.3901 113.288C75.2281 113.407 75.097 113.546 74.9966 113.706C74.898 113.873 74.8327 114.052 74.8006 114.241C74.7618 114.44 74.7512 114.647 74.7688 114.861L74.7714 114.873L76.0897 114.612C76.3543 114.559 76.5649 114.484 76.7218 114.382C76.8718 114.291 76.9732 114.18 77.0258 114.048C77.0784 113.915 77.0892 113.774 77.0581 113.623C77.0236 113.456 76.9567 113.326 76.8575 113.232C76.7582 113.139 76.63 113.077 76.4729 113.047C76.3157 113.017 76.1433 113.021 75.9556 113.058Z" fill="white"/>
<path d="M66.4746 112.817C67.1361 112.806 67.7262 112.941 68.2448 113.223C68.7634 113.504 69.1707 113.894 69.4667 114.393C69.7626 114.892 69.9162 115.465 69.9274 116.114C69.939 116.779 69.8054 117.366 69.5269 117.874C69.2485 118.391 68.855 118.798 68.3464 119.097C67.838 119.404 67.253 119.563 66.5915 119.574C65.7471 119.588 65.0339 119.382 64.4519 118.957C63.8698 118.531 63.4939 117.94 63.3241 117.183L65.1912 117.152C65.2748 117.45 65.4442 117.681 65.6996 117.848C65.9463 118.014 66.2394 118.095 66.5788 118.089C66.8835 118.084 67.1564 118.003 67.3975 117.845C67.63 117.696 67.8134 117.476 67.9476 117.183C68.0733 116.9 68.1328 116.562 68.126 116.169C68.1208 115.87 68.077 115.602 67.9945 115.365C67.9122 115.136 67.7999 114.937 67.6577 114.769C67.5156 114.609 67.3481 114.488 67.1551 114.406C66.9534 114.324 66.7394 114.285 66.5131 114.289C66.2868 114.292 66.0829 114.334 65.9014 114.414C65.7112 114.494 65.552 114.603 65.4238 114.742C65.2958 114.889 65.2074 115.065 65.1587 115.271L63.2915 115.302C63.4354 114.557 63.7951 113.958 64.3706 113.505C64.9376 113.06 65.6389 112.831 66.4746 112.817Z" fill="white"/>
<path d="M57.7577 112.398C58.2143 112.463 58.6049 112.588 58.9294 112.772C59.244 112.964 59.4722 113.234 59.614 113.581C59.7545 113.938 59.7827 114.399 59.6985 114.965L59.2952 117.675L60.4066 117.834L60.1936 119.265L59.0823 119.106L58.6303 120.813L57.0796 120.592L57.3378 118.857L55.6191 118.611L55.8321 117.18L57.5507 117.426L57.9578 114.69C58.0005 114.403 57.9654 114.195 57.8525 114.067C57.7396 113.939 57.5281 113.852 57.218 113.808L56.3651 113.686L56.5818 112.23L57.7577 112.398Z" fill="white"/>
<path d="M47.0447 109.294C47.531 109.503 47.9057 109.78 48.169 110.127C48.4208 110.477 48.5527 110.883 48.5646 111.345C48.573 111.815 48.4495 112.335 48.1941 112.905L46.6562 116.339L45.0419 115.644L46.5063 112.375C46.7197 111.898 46.781 111.496 46.6902 111.168C46.5914 110.836 46.3307 110.58 45.9082 110.398C45.6372 110.281 45.3718 110.237 45.112 110.265C44.8488 110.301 44.6066 110.407 44.3856 110.582C44.153 110.761 43.9616 111.019 43.8111 111.355L42.3992 114.508L40.7969 113.818L43.4422 107.912L44.8532 108.519L44.5543 109.536C44.8802 109.276 45.26 109.118 45.6937 109.062C46.124 109.014 46.5743 109.091 47.0447 109.294Z" fill="white"/>
<path d="M38.7934 104.983C39.2913 105.313 39.6707 105.677 39.9315 106.076C40.1923 106.475 40.3324 106.882 40.3516 107.296C40.3709 107.71 40.2756 108.1 40.0658 108.466L38.6155 107.506C38.6719 107.348 38.6959 107.184 38.6872 107.013C38.6737 106.85 38.6167 106.689 38.5162 106.529C38.4158 106.37 38.2645 106.224 38.0625 106.09C37.8676 105.961 37.6919 105.881 37.5351 105.849C37.3735 105.825 37.2321 105.839 37.1111 105.893C36.9828 105.942 36.8846 106.016 36.8164 106.115C36.7141 106.264 36.6794 106.405 36.7124 106.541C36.7405 106.683 36.8205 106.833 36.9524 106.993C37.0843 107.152 37.2522 107.335 37.4562 107.542C37.6819 107.764 37.8966 107.993 38.1005 108.231C38.2922 108.471 38.4465 108.712 38.5634 108.954C38.6803 109.196 38.7356 109.444 38.7292 109.697C38.7229 109.95 38.6296 110.208 38.4494 110.469C38.2302 110.788 37.9487 111.013 37.6051 111.146C37.2565 111.286 36.8651 111.321 36.4309 111.25C35.9967 111.178 35.5451 110.988 35.0761 110.677C34.4195 110.243 33.9998 109.754 33.8171 109.211C33.6344 108.668 33.6823 108.118 33.9609 107.561L35.3355 108.471C35.2667 108.662 35.2765 108.854 35.3647 109.046C35.4408 109.241 35.6015 109.419 35.8468 109.581C36.1066 109.753 36.3367 109.839 36.5371 109.837C36.7375 109.836 36.8889 109.761 36.9912 109.613C37.0594 109.514 37.077 109.397 37.044 109.262C37.0038 109.122 36.9202 108.969 36.7932 108.802C36.6613 108.643 36.4934 108.46 36.2893 108.253C35.9293 107.891 35.6295 107.548 35.39 107.225C35.1455 106.909 35.0038 106.589 34.9646 106.264C34.9206 105.947 35.0302 105.597 35.2932 105.215C35.527 104.876 35.8303 104.634 36.203 104.489C36.5709 104.352 36.9791 104.323 37.4278 104.404C37.8692 104.48 38.3244 104.673 38.7934 104.983Z" fill="white"/>
<path d="M25.7851 100.186L24.2352 101.167L26.0439 101.485L25.5945 102.722L24.0026 101.884L24.6041 103.537L23.3717 103.779L23.2746 101.956L22.0546 103.334L21.222 102.382L22.8073 101.422L20.9844 101.048L21.4168 99.9093L23.0186 100.739L22.41 99.0586L23.6891 98.8105L23.7594 100.622L24.9695 99.2524L25.7851 100.186Z" fill="white"/>
<path d="M21.2964 84.6356C21.659 85.458 21.7917 86.243 21.6945 86.9906C21.5859 87.7337 21.2788 88.403 20.773 88.9983C20.2558 89.5891 19.5697 90.0656 18.7146 90.4278C17.8595 90.79 17.0352 90.9532 16.2417 90.9174C15.4448 90.8738 14.733 90.6362 14.1064 90.2044C13.4763 89.7648 12.9799 89.1338 12.6173 88.3114C12.1787 87.3167 12.0713 86.3955 12.2951 85.5478C12.5188 84.7001 13.0557 84.0033 13.9056 83.4574L14.6671 85.1845C14.2645 85.4759 14.0118 85.8385 13.9091 86.2724C13.795 86.7019 13.8536 87.179 14.085 87.7038C14.2991 88.1894 14.6038 88.5576 14.9989 88.8086C15.3826 89.055 15.8317 89.1809 16.3461 89.1861C16.8526 89.1947 17.4055 89.0721 18.0049 88.8182C18.5963 88.5677 19.0663 88.2571 19.415 87.8864C19.7636 87.5156 19.9779 87.1088 20.0577 86.666C20.134 86.2154 20.0652 85.7473 19.851 85.2617C19.6197 84.7369 19.3173 84.363 18.9439 84.14C18.5626 83.9204 18.1377 83.8494 17.6692 83.927L16.9025 82.1882C17.8427 81.9759 18.7004 82.082 19.4756 82.5066C20.2509 82.9312 20.8578 83.6409 21.2964 84.6356Z" fill="white"/>
<path d="M18.2386 75.281C18.359 75.8839 18.3268 76.4552 18.1419 76.995C17.9467 77.528 17.6256 77.9853 17.1784 78.3667C16.7209 78.7414 16.1633 78.9919 15.5054 79.1182C14.8305 79.2477 14.2133 79.2227 13.6541 79.0431C13.0845 78.8567 12.6103 78.5478 12.2313 78.1162C11.8438 77.6863 11.5898 77.1699 11.4694 76.567C11.3473 75.9557 11.3838 75.3836 11.5789 74.8505C11.7638 74.3107 12.085 73.8535 12.5424 73.4788C12.9896 73.0974 13.5464 72.8427 14.2128 72.7148C14.8792 72.5869 15.4972 72.6161 16.0667 72.8025C16.626 72.9821 17.0994 73.2868 17.4869 73.7167C17.8659 74.1483 18.1164 74.6697 18.2386 75.281ZM16.7391 75.5687C16.6822 75.284 16.5637 75.0459 16.3835 74.8545C16.2016 74.6546 15.9572 74.5189 15.6501 74.4474C15.3414 74.3676 14.9778 74.3678 14.5591 74.4481C14.1405 74.5285 13.8078 74.6619 13.5612 74.8483C13.3043 75.028 13.1302 75.2441 13.0386 75.4964C12.9369 75.742 12.9136 76.0029 12.9688 76.2792C13.0223 76.5472 13.1443 76.7803 13.3347 76.9785C13.5166 77.1784 13.7619 77.3182 14.0706 77.3981C14.3691 77.4712 14.7277 77.4676 15.1463 77.3873C15.565 77.3069 15.9027 77.1769 16.1596 76.9972C16.4147 76.8091 16.5889 76.5931 16.6821 76.3492C16.7737 76.0968 16.7927 75.8367 16.7391 75.5687Z" fill="white"/>
<path d="M17.0801 69.1621L10.4984 69.1709L10.4963 67.6478L11.567 67.5184C11.201 67.3226 10.9046 67.0457 10.6778 66.6876C10.4509 66.321 10.3371 65.886 10.3364 65.3826C10.3357 64.845 10.4482 64.3927 10.6741 64.0254C10.8999 63.6582 11.2304 63.3805 11.6654 63.1922C12.1004 62.9954 12.6357 62.8965 13.2713 62.8957L17.0714 62.8906L17.0738 64.6057L13.4434 64.6105C12.9211 64.6112 12.5207 64.7227 12.2424 64.9449C11.9642 65.1586 11.8253 65.4915 11.8259 65.9438C11.8263 66.2339 11.8964 66.494 12.036 66.7242C12.1756 66.9459 12.3761 67.1205 12.6374 67.2482C12.8901 67.3758 13.1992 67.4394 13.5649 67.4389L17.0777 67.4342L17.0801 69.1621Z" fill="white"/>
<path d="M17.8142 57.3136C17.7395 57.7599 17.6052 58.1403 17.4114 58.455C17.2104 58.7599 16.9311 58.9788 16.5737 59.1115C16.2076 59.2429 15.7368 59.2623 15.1612 59.1698L12.4034 58.7264L12.2216 59.8126L10.7654 59.5785L10.9472 58.4923L9.21338 58.019L9.46705 56.5034L11.2326 56.7872L11.5137 55.1074L12.9699 55.3415L12.6888 57.0213L15.4723 57.4689C15.7644 57.5158 15.9769 57.4851 16.1097 57.3768C16.2425 57.2684 16.3343 57.0627 16.385 56.7596L16.5246 55.926L18.0065 56.1642L17.8142 57.3136Z" fill="white"/>
<path d="M19.3698 51.6392C19.1953 52.1488 18.9687 52.5422 18.69 52.8196C18.4031 53.0942 18.0916 53.2662 17.7556 53.3357C17.4141 53.3944 17.07 53.3667 16.7234 53.2526C16.3437 53.1277 16.0413 52.9247 15.8162 52.6436C15.5938 52.3544 15.4652 51.9926 15.4303 51.5581C15.3983 51.1155 15.482 50.603 15.6814 50.0206L16.2009 48.5039C15.8956 48.4035 15.63 48.3611 15.4042 48.3768C15.1701 48.3898 14.9745 48.465 14.8173 48.6022C14.6601 48.7395 14.533 48.9497 14.436 49.2328C14.3307 49.5402 14.3108 49.8262 14.3763 50.0908C14.4363 50.3445 14.5984 50.5418 14.8623 50.6827L14.3179 52.2722C13.8861 52.0851 13.5508 51.8173 13.312 51.4687C13.0678 51.1093 12.9241 50.6975 12.8811 50.2334C12.8408 49.7611 12.9066 49.2742 13.0783 48.7727C13.2751 48.1983 13.5445 47.7334 13.8866 47.378C14.2288 47.0225 14.6244 46.7927 15.0733 46.6884C15.5223 46.5841 16.0192 46.6215 16.5639 46.8007L20.4265 48.0716L19.9527 49.4548L18.9371 49.3232C19.0717 49.4664 19.1842 49.6205 19.2747 49.7853C19.3652 49.95 19.4323 50.1296 19.4759 50.324C19.5195 50.5183 19.5315 50.7248 19.5117 50.9433C19.5003 51.1645 19.4529 51.3965 19.3698 51.6392ZM18.2153 50.8273C18.2873 50.617 18.3139 50.4187 18.295 50.2325C18.2707 50.0355 18.2133 49.8546 18.1228 49.6898C18.024 49.5223 17.8991 49.3777 17.7479 49.2559C17.5913 49.1234 17.4139 49.011 17.2159 48.9189L17.2035 48.9148L16.7755 50.1646C16.6896 50.4153 16.652 50.6324 16.6626 50.816C16.6677 50.9887 16.7156 51.1304 16.8062 51.2412C16.8968 51.352 17.0164 51.4319 17.1649 51.4808C17.33 51.5351 17.4787 51.5435 17.6109 51.506C17.7431 51.4685 17.8617 51.3905 17.9666 51.272C18.0714 51.1535 18.1543 51.0052 18.2153 50.8273Z" fill="white"/>
<path d="M23.1718 42.8991C22.8498 43.4656 22.4345 43.8981 21.9259 44.1967C21.4174 44.4953 20.8688 44.6451 20.2803 44.6461C19.6917 44.647 19.1085 44.4897 18.5304 44.1741C17.9372 43.8502 17.4862 43.4428 17.1773 42.9518C16.8608 42.4566 16.6982 41.9186 16.6896 41.3376C16.6734 40.7525 16.8263 40.1767 17.1483 39.6102C17.5593 38.8871 18.0986 38.3855 18.7661 38.1054C19.4336 37.8252 20.144 37.8028 20.8971 38.0382L19.9883 39.6371C19.684 39.5588 19.3943 39.5863 19.1193 39.7194C18.8486 39.845 18.6306 40.0532 18.4653 40.3439C18.317 40.6048 18.252 40.877 18.2703 41.1604C18.2852 41.4323 18.388 41.6984 18.5788 41.9589C18.7662 42.2077 19.0349 42.4277 19.3847 42.6187C19.6509 42.764 19.9095 42.8613 20.1606 42.9105C20.4041 42.9555 20.6358 42.96 20.8557 42.9237C21.068 42.8834 21.2588 42.802 21.428 42.6795C21.6015 42.5496 21.7434 42.3877 21.8535 42.1939C21.9637 42.0001 22.029 41.8063 22.0496 41.6124C22.0743 41.411 22.0577 41.2212 21.9995 41.043C21.9338 40.8606 21.8224 40.6972 21.6653 40.5528L22.5741 38.9539C23.1595 39.4494 23.508 40.0548 23.6196 40.7701C23.7278 41.4739 23.5786 42.1835 23.1718 42.8991Z" fill="white"/>
<path d="M27.8832 35.767C27.5966 36.1214 27.2906 36.39 26.9651 36.5727C26.6383 36.7435 26.2857 36.8017 25.9075 36.7474C25.5224 36.6879 25.1013 36.4806 24.6441 36.1256L22.4538 34.4245L21.7563 35.2872L20.5997 34.389L21.2972 33.5263L20.0166 32.2868L20.9899 31.083L22.3921 32.172L23.4708 30.8379L24.6273 31.7361L23.5487 33.0703L25.7595 34.7872C25.9915 34.9674 26.1924 35.0418 26.3622 35.0103C26.532 34.9789 26.7142 34.8428 26.9089 34.6021L27.4442 33.94L28.6212 34.8541L27.8832 35.767Z" fill="white"/>
<path d="M36 28.2168C35.5723 28.5254 35.1397 28.7051 34.7022 28.7558C34.2665 28.7947 33.8416 28.704 33.4275 28.4836C33.0081 28.2564 32.6101 27.892 32.2333 27.3904L29.9648 24.3704L31.3846 23.346L33.5446 26.2217C33.8595 26.6409 34.1845 26.8937 34.5198 26.9803C34.8621 27.0617 35.219 26.9684 35.5906 26.7003C35.829 26.5283 36.0006 26.325 36.1055 26.0904C36.2052 25.849 36.2328 25.5907 36.1883 25.3155C36.1456 25.0284 36.0133 24.7372 35.7914 24.4417L33.7087 21.6691L35.1179 20.6523L39.02 25.8471L37.779 26.7425L37.0285 25.9807C37.0962 26.3875 37.0464 26.789 36.8791 27.1851C36.7067 27.5745 36.4136 27.9183 36 28.2168Z" fill="white"/>
<path d="M43.9225 23.3624C43.3828 23.621 42.8715 23.7616 42.3885 23.7841C41.9055 23.8066 41.476 23.7228 41.1 23.5325C40.7241 23.3423 40.4268 23.0668 40.2081 22.7062L41.7801 21.9529C41.8919 22.0798 42.0253 22.182 42.1803 22.2597C42.3316 22.3297 42.5026 22.3617 42.6934 22.3557C42.8843 22.3498 43.0892 22.2943 43.3082 22.1894C43.5193 22.0882 43.678 21.9789 43.7842 21.8615C43.8866 21.7364 43.9442 21.6091 43.957 21.4795C43.9777 21.3461 43.9613 21.2257 43.9077 21.1184C43.8274 20.9575 43.7193 20.8573 43.5834 20.818C43.4436 20.771 43.2704 20.7637 43.0638 20.7963C42.8571 20.8288 42.6114 20.8801 42.3265 20.9502C42.0182 21.0314 41.708 21.0993 41.396 21.1539C41.0881 21.197 40.7979 21.2078 40.5255 21.1864C40.2532 21.1649 40.0066 21.0884 39.7859 20.9567C39.5651 20.8251 39.384 20.6174 39.2425 20.3338C39.0704 19.9889 39.0113 19.6373 39.0651 19.279C39.1152 18.9131 39.2799 18.5635 39.5594 18.2301C39.8388 17.8967 40.2327 17.6082 40.7411 17.3646C41.4528 17.0235 42.0943 16.9107 42.6657 17.0264C43.237 17.142 43.6994 17.457 44.053 17.9714L42.5631 18.6855C42.4282 18.5317 42.2538 18.4443 42.0398 18.4233C41.8298 18.391 41.5919 18.4385 41.326 18.566C41.0444 18.7009 40.8542 18.8538 40.7553 19.0247C40.6564 19.1955 40.6471 19.3615 40.7275 19.5224C40.781 19.6297 40.8757 19.7031 41.0116 19.7424C41.1554 19.778 41.3325 19.7834 41.543 19.7585C41.7496 19.7259 41.9954 19.6746 42.2803 19.6046C42.7798 19.4792 43.2322 19.3953 43.6375 19.3531C44.039 19.3031 44.393 19.3424 44.6994 19.471C45.002 19.592 45.2566 19.8594 45.4631 20.2733C45.6466 20.6412 45.7094 21.0196 45.6514 21.4083C45.5895 21.7894 45.4111 22.1504 45.116 22.4912C44.8287 22.8284 44.4309 23.1188 43.9225 23.3624Z" fill="white"/>
<path d="M54.6829 14.7147L54.5943 12.9085L53.406 14.2824L52.5397 13.281L54.0775 12.3514L52.3174 12.0327L52.7214 10.8661L54.3791 11.698L53.7745 9.97228L55.033 9.74414L55.0854 11.5699L56.3298 10.2119L57.1176 11.1494L55.5822 12.0916L57.3704 12.4182L56.9478 13.6272L55.3134 12.7781L55.9156 14.4912L54.6829 14.7147Z" fill="white"/>
<path d="M70.104 61.4643L58.849 72.7193L57 70.8703L68.2536 59.6153H58.3351V57H72.7193V71.3842H70.104V61.4643Z" fill="white"/>
</g>
<defs>
<clipPath id="clip0_66_2789">
<rect width="130" height="130" fill="white"/>
</clipPath>
</defs>
</svg>
