<svg width="120" height="121" viewBox="0 0 120 121" fill="none" xmlns="http://www.w3.org/2000/svg">
<g clip-path="url(#clip0_66_2498)">
<path d="M60.5527 9.98268L64.9385 0.845703L67.0089 1.04719L69.5378 10.8571L67.6028 10.6688L65.7642 3.03009L62.4742 10.1697L60.5527 9.98268ZM62.2912 7.97952L62.9166 6.60581L67.7339 7.07464L68.0692 8.54185L62.2912 7.97952Z" fill="#3E97D4"/>
<path d="M74.6782 12.5177C74.3391 12.4177 74.0476 12.2846 73.8037 12.1182C73.5685 11.9544 73.3683 11.7678 73.2032 11.5585C73.0493 11.343 72.931 11.1191 72.8483 10.8868L72.4029 11.677L70.8379 11.2158L73.6046 1.82422L75.3652 2.34307L74.2662 6.07363C74.5645 5.83077 74.9127 5.6593 75.3107 5.55922C75.7199 5.453 76.181 5.47548 76.694 5.62665C77.3026 5.80601 77.7968 6.11704 78.1766 6.55976C78.5677 6.99635 78.8212 7.51523 78.937 8.11642C79.064 8.71147 79.029 9.34379 78.8317 10.0134C78.6396 10.6656 78.3276 11.2115 77.8956 11.6513C77.4724 12.0936 76.9825 12.3934 76.4259 12.5507C75.8693 12.708 75.2867 12.697 74.6782 12.5177ZM74.7143 10.8555C75.062 10.958 75.3894 10.9694 75.6963 10.8897C76.0145 10.8039 76.2885 10.6437 76.5183 10.409C76.7506 10.1656 76.9219 9.85693 77.032 9.483C77.1422 9.10908 77.1656 8.75685 77.1023 8.42633C77.0416 8.08711 76.8996 7.79952 76.6762 7.56356C76.464 7.32147 76.184 7.14918 75.8363 7.04669C75.4972 6.94677 75.1686 6.9397 74.8504 7.0255C74.5434 7.10516 74.2695 7.26541 74.0284 7.50626C73.7961 7.74967 73.6248 8.05833 73.5147 8.43226C73.4045 8.80619 73.3798 9.16276 73.4405 9.50198C73.5125 9.83507 73.6558 10.1183 73.8705 10.3517C74.0939 10.5876 74.3752 10.7556 74.7143 10.8555Z" fill="#3E97D4"/>
<path d="M82.4562 15.6364C81.8735 15.3428 81.4147 14.9441 81.0798 14.4405C80.7571 13.9328 80.5784 13.3708 80.5437 12.7545C80.5213 12.1342 80.667 11.5124 80.9809 10.8891C81.303 10.2495 81.7179 9.75818 82.2255 9.41512C82.7453 9.06805 83.3072 8.87919 83.9112 8.84856C84.5193 8.80984 85.1147 8.93728 85.6974 9.23089C86.2883 9.52857 86.7451 9.93126 87.0678 10.439C87.4027 10.9427 87.5814 11.5046 87.6038 12.1249C87.6385 12.7412 87.4968 13.3651 87.1788 13.9965C86.8608 14.6279 86.4419 15.1172 85.922 15.4643C85.4144 15.8073 84.8565 15.9982 84.2485 16.037C83.6445 16.0676 83.0471 15.9341 82.4562 15.6364ZM83.1718 14.2156C83.447 14.3543 83.7224 14.4119 83.9981 14.3884C84.2818 14.3689 84.5517 14.2562 84.8076 14.0502C85.0717 13.8483 85.3036 13.5491 85.5034 13.1524C85.7031 12.7557 85.8035 12.3952 85.8045 12.0709C85.8176 11.7426 85.7475 11.4586 85.5942 11.219C85.4531 10.9754 85.249 10.7862 84.9819 10.6517C84.7229 10.5212 84.4495 10.4697 84.1616 10.4972C83.8779 10.5166 83.604 10.6273 83.3399 10.8292C83.0881 11.0271 82.8622 11.3244 82.6625 11.721C82.4627 12.1177 82.3562 12.4802 82.3431 12.8085C82.338 13.1409 82.4081 13.4249 82.5533 13.6604C82.7066 13.9001 82.9128 14.0851 83.1718 14.2156Z" fill="#3E97D4"/>
<path d="M89.3332 19.8084C88.8891 19.4791 88.5744 19.1046 88.389 18.6851C88.2163 18.2636 88.1785 17.8124 88.2756 17.3314C88.378 16.8432 88.6263 16.3333 89.0203 15.8018L91.3926 12.6016L92.8668 13.6949L90.6078 16.7421C90.2786 17.1863 90.1213 17.5887 90.1359 17.9494C90.1579 18.3155 90.3618 18.6416 90.7476 18.9277C90.9951 19.1113 91.254 19.2186 91.5242 19.2498C91.7999 19.2737 92.0706 19.2205 92.3363 19.0903C92.6147 18.9583 92.87 18.7357 93.1021 18.4226L95.28 15.4846L96.7433 16.5697L92.6626 22.0744L91.3741 21.1188L91.9179 20.1342C91.5256 20.3285 91.1028 20.4042 90.6494 20.3614C90.2015 20.3113 89.7627 20.127 89.3332 19.8084Z" fill="#3E97D4"/>
<path d="M96.1987 25.5372C95.8573 25.1991 95.6088 24.851 95.4532 24.4928C95.3105 24.1345 95.2894 23.7628 95.39 23.3777C95.497 22.9861 95.7642 22.5745 96.1914 22.1429L98.2385 20.075L97.4076 19.2522L98.4885 18.1602L99.3194 18.983L100.775 17.8027L101.934 18.9508L100.623 20.2747L101.908 21.5472L100.827 22.6391L99.5427 21.3666L97.4766 23.4538C97.2597 23.6729 97.1582 23.8721 97.1719 24.0515C97.1856 24.231 97.3084 24.4355 97.5403 24.6651L98.1779 25.2966L97.0779 26.4078L96.1987 25.5372Z" fill="#3E97D4"/>
<path d="M102.647 34.1105C102.279 33.517 102.065 32.9035 102.003 32.27C101.941 31.6365 102.061 31.0292 102.362 30.4481C102.663 29.867 103.184 29.3473 103.923 28.8891L108.894 25.8105L109.86 27.3712L104.878 30.457C104.477 30.7052 104.179 30.9807 103.983 31.2836C103.794 31.5817 103.711 31.8946 103.732 32.2224C103.759 32.5578 103.879 32.899 104.094 33.2458C104.314 33.6004 104.565 33.8604 104.849 34.0259C105.137 34.1991 105.457 34.2677 105.808 34.2316C106.166 34.1908 106.546 34.0463 106.947 33.7981L111.929 30.7124L112.895 32.2731L107.925 35.3517C107.185 35.8099 106.486 36.0405 105.826 36.0436C105.167 36.0466 104.563 35.8717 104.014 35.5187C103.47 35.1733 103.014 34.704 102.647 34.1105Z" fill="#3E97D4"/>
<path d="M106.553 41.8377C106.319 41.2577 106.208 40.716 106.22 40.2127C106.232 39.7093 106.353 39.2697 106.582 38.8936C106.812 38.5176 107.126 38.2297 107.524 38.0299L108.205 39.7195C108.063 39.826 107.944 39.9568 107.85 40.1119C107.765 40.2637 107.719 40.4389 107.711 40.6375C107.703 40.8362 107.746 41.0532 107.841 41.2885C107.933 41.5155 108.037 41.6886 108.153 41.8077C108.278 41.9235 108.409 41.993 108.545 42.0162C108.685 42.0477 108.814 42.0398 108.931 41.9923C109.108 41.9211 109.222 41.8164 109.274 41.6782C109.334 41.5366 109.354 41.3573 109.335 41.1402C109.316 40.9232 109.28 40.664 109.227 40.3629C109.164 40.0365 109.115 39.7093 109.08 39.3812C109.057 39.0581 109.067 38.7559 109.11 38.4747C109.153 38.1934 109.253 37.9432 109.409 37.7239C109.564 37.5046 109.798 37.3322 110.109 37.2068C110.487 37.0542 110.864 37.0194 111.239 37.1025C111.623 37.1821 111.982 37.3797 112.314 37.6952C112.646 38.0106 112.923 38.4416 113.143 38.988C113.452 39.7529 113.524 40.4277 113.359 41.0123C113.194 41.5968 112.826 42.0532 112.255 42.3815L111.609 40.7801C111.782 40.6516 111.887 40.4771 111.925 40.2565C111.975 40.0409 111.942 39.7902 111.827 39.5044C111.705 39.2018 111.557 38.9926 111.383 38.877C111.21 38.7614 111.035 38.7392 110.858 38.8104C110.741 38.8579 110.656 38.9507 110.604 39.0889C110.556 39.2354 110.537 39.419 110.548 39.6394C110.567 39.8565 110.603 40.1156 110.656 40.4168C110.752 40.945 110.807 41.4212 110.822 41.8454C110.845 42.2661 110.777 42.6307 110.618 42.9392C110.467 43.2443 110.165 43.4884 109.711 43.6716C109.308 43.8343 108.902 43.8709 108.495 43.7812C108.096 43.6881 107.727 43.4754 107.387 43.1431C107.051 42.8192 106.773 42.3841 106.553 41.8377Z" fill="#3E97D4"/>
<path d="M114.443 51.3679L116.364 51.33L114.94 50.0518L116.029 49.1801L116.971 50.8088L117.361 48.9863L118.588 49.4419L117.656 51.1424L119.506 50.565L119.711 51.8818L117.771 51.8814L119.176 53.2176L118.158 54.0095L117.202 52.3829L116.803 54.2344L115.531 53.7582L116.481 52.0825L114.644 52.6578L114.443 51.3679Z" fill="#3E97D4"/>
<path d="M110.483 60.9648L119.626 65.3356L119.428 67.4067L109.625 69.9532L109.81 68.0175L117.443 66.1652L110.3 62.887L110.483 60.9648ZM112.489 62.7001L113.864 63.3232L113.403 68.1423L111.937 68.4803L112.489 62.7001Z" fill="#3E97D4"/>
<path d="M107.975 75.0972C108.074 74.7579 108.207 74.4661 108.372 74.2218C108.536 73.9863 108.722 73.7858 108.931 73.6202C109.146 73.466 109.37 73.3472 109.602 73.2641L108.811 72.82L109.269 71.2539L118.664 74.0045L118.148 75.7664L114.417 74.6738C114.66 74.9717 114.832 75.3196 114.933 75.7175C115.04 76.1267 115.018 76.5879 114.868 77.1012C114.69 77.7103 114.38 78.2051 113.938 78.5858C113.502 78.9777 112.983 79.2322 112.383 79.3491C111.788 79.4772 111.156 79.4432 110.486 79.2471C109.833 79.0561 109.287 78.745 108.847 78.3138C108.404 77.8912 108.103 77.4018 107.945 76.8454C107.786 76.2889 107.796 75.7062 107.975 75.0972ZM109.637 75.1303C109.535 75.4784 109.524 75.8058 109.604 76.1127C109.69 76.4308 109.851 76.7045 110.086 76.9339C110.33 77.1659 110.639 77.3366 111.013 77.4461C111.387 77.5556 111.739 77.5785 112.069 77.5146C112.409 77.4533 112.696 77.3107 112.931 77.0868C113.173 76.8742 113.345 76.5939 113.447 76.2459C113.546 75.9066 113.552 75.5778 113.466 75.2597C113.386 74.9529 113.225 74.6791 112.984 74.4385C112.74 74.2065 112.431 74.0358 112.057 73.9263C111.683 73.8167 111.327 73.7926 110.988 73.854C110.655 73.9265 110.372 74.0704 110.139 74.2856C109.903 74.5094 109.736 74.791 109.637 75.1303Z" fill="#3E97D4"/>
<path d="M104.87 82.8814C105.163 82.298 105.56 81.8384 106.063 81.5025C106.57 81.1789 107.132 80.9992 107.748 80.9634C108.368 80.9399 108.99 81.0845 109.614 81.3974C110.254 81.7185 110.746 82.1325 111.09 82.6397C111.438 83.159 111.627 83.7207 111.659 84.3247C111.699 84.9328 111.572 85.5286 111.28 86.112C110.983 86.7034 110.582 87.161 110.075 87.4847C109.572 87.8206 109.01 88.0003 108.39 88.0238C107.774 88.0596 107.15 87.9189 106.518 87.602C105.886 87.285 105.396 86.8669 105.048 86.3476C104.704 85.8404 104.513 85.2828 104.473 84.6747C104.441 84.0706 104.574 83.4729 104.87 82.8814ZM106.292 83.5946C106.154 83.87 106.097 84.1456 106.121 84.4213C106.141 84.7051 106.254 84.9748 106.46 85.2305C106.662 85.4942 106.962 85.7256 107.359 85.9247C107.756 86.1239 108.116 86.2236 108.441 86.224C108.769 86.2366 109.053 86.166 109.292 86.0122C109.535 85.8707 109.724 85.6662 109.858 85.3988C109.988 85.1395 110.039 84.8659 110.011 84.5781C109.991 84.2943 109.88 84.0205 109.678 83.7568C109.48 83.5052 109.182 83.2799 108.785 83.0808C108.388 82.8816 108.025 82.7758 107.697 82.7632C107.365 82.7588 107.081 82.8294 106.846 82.975C106.606 83.1288 106.422 83.3353 106.292 83.5946Z" fill="#3E97D4"/>
<path d="M100.711 89.768C101.039 89.3232 101.413 89.0078 101.832 88.8217C102.254 88.6482 102.705 88.6096 103.186 88.7058C103.674 88.8074 104.184 89.0548 104.716 89.448L107.92 91.8152L106.829 93.2916L103.779 91.0375C103.334 90.7089 102.932 90.5523 102.571 90.5676C102.205 90.5902 101.879 90.7947 101.594 91.1811C101.411 91.429 101.304 91.6881 101.273 91.9585C101.25 92.2342 101.304 92.5049 101.434 92.7704C101.567 93.0486 101.79 93.3036 102.103 93.5352L105.044 95.7084L103.962 97.1739L98.4512 93.102L99.4043 91.8115L100.39 92.3537C100.195 91.9617 100.118 91.539 100.16 91.0854C100.21 90.6373 100.393 90.1981 100.711 89.768Z" fill="#3E97D4"/>
<path d="M94.995 96.6437C95.3324 96.3017 95.68 96.0525 96.0379 95.8963C96.3958 95.7529 96.7674 95.7311 97.1526 95.8311C97.5443 95.9375 97.9563 96.2039 98.3886 96.6305L100.46 98.6744L101.281 97.842L102.374 98.9212L101.553 99.7537L102.736 101.207L101.59 102.369L100.264 101.06L98.9941 102.348L97.9005 101.268L99.1705 99.9812L97.0801 97.9182C96.8608 97.7017 96.6614 97.6005 96.482 97.6145C96.3027 97.6286 96.0984 97.7517 95.8692 97.984L95.239 98.6229L94.126 97.5246L94.995 96.6437Z" fill="#3E97D4"/>
<path d="M86.4341 103.109C87.0268 102.741 87.6398 102.525 88.273 102.462C88.9063 102.399 89.5137 102.518 90.0952 102.818C90.6767 103.118 91.1972 103.638 91.6566 104.377L94.7433 109.343L93.1845 110.312L90.0907 105.335C89.8419 104.935 89.5659 104.636 89.2627 104.441C88.9644 104.253 88.6514 104.17 88.3237 104.192C87.9883 104.219 87.6475 104.34 87.3011 104.556C86.947 104.776 86.6875 105.028 86.5225 105.312C86.3498 105.601 86.2818 105.921 86.3185 106.271C86.3599 106.63 86.505 107.009 86.7539 107.41L89.8477 112.387L88.289 113.356L85.2023 108.391C84.7429 107.652 84.5111 106.952 84.5069 106.293C84.5027 105.634 84.6766 105.029 85.0286 104.48C85.3729 103.935 85.8414 103.478 86.4341 103.109Z" fill="#3E97D4"/>
<path d="M78.7143 107.029C79.2938 106.794 79.8352 106.682 80.3384 106.694C80.8416 106.705 81.2814 106.825 81.6578 107.053C82.0342 107.282 82.3226 107.596 82.523 107.994L80.8349 108.678C80.7282 108.536 80.5972 108.418 80.442 108.324C80.2901 108.239 80.1149 108.193 79.9162 108.185C79.7176 108.178 79.5007 108.222 79.2656 108.317C79.0388 108.409 78.866 108.513 78.747 108.63C78.6315 108.755 78.5623 108.886 78.5393 109.022C78.508 109.162 78.5162 109.291 78.5639 109.409C78.6354 109.585 78.7402 109.699 78.8785 109.75C79.0201 109.81 79.1995 109.831 79.4165 109.811C79.6335 109.791 79.8925 109.755 80.1934 109.701C80.5196 109.638 80.8467 109.588 81.1747 109.553C81.4977 109.529 81.7999 109.539 82.0811 109.581C82.3624 109.624 82.6127 109.723 82.8322 109.878C83.0517 110.034 83.2245 110.267 83.3505 110.578C83.5037 110.956 83.5391 111.333 83.4568 111.708C83.3778 112.093 83.1809 112.451 82.866 112.784C82.5512 113.117 82.1208 113.395 81.5749 113.616C80.8107 113.926 80.1362 113.999 79.5514 113.835C78.9667 113.671 78.5097 113.304 78.1806 112.733L79.7805 112.084C79.9092 112.257 80.0839 112.362 80.3045 112.4C80.5202 112.449 80.7708 112.416 81.0563 112.3C81.3587 112.178 81.5675 112.03 81.6828 111.856C81.7981 111.682 81.82 111.507 81.7485 111.33C81.7008 111.213 81.6079 111.128 81.4696 111.076C81.323 111.028 81.1395 111.01 80.9191 111.021C80.7021 111.041 80.4431 111.077 80.1421 111.131C79.6141 111.227 79.1381 111.283 78.7141 111.299C78.2935 111.323 77.9288 111.255 77.6201 111.097C77.3148 110.947 77.0702 110.645 76.8863 110.192C76.7229 109.788 76.6856 109.383 76.7746 108.975C76.867 108.576 77.079 108.206 77.4106 107.866C77.7338 107.53 78.1684 107.251 78.7143 107.029Z" fill="#3E97D4"/>
<path d="M69.2016 114.938L69.2429 116.858L70.5183 115.432L71.3917 116.519L69.7651 117.464L71.5879 117.851L71.1345 119.079L69.4327 118.15L70.0132 119.999L68.697 120.207L68.694 118.266L67.3606 119.674L66.567 118.657L68.1917 117.698L66.3398 117.302L66.8137 116.03L68.4908 116.977L67.9123 115.141L69.2016 114.938Z" fill="#3E97D4"/>
<path d="M59.5994 110.993L55.2455 120.145L53.1744 119.951L50.6113 110.15L52.547 110.332L54.4122 117.964L57.6773 110.813L59.5994 110.993ZM57.868 113.002L57.2474 114.378L52.4285 113.926L52.088 112.46L57.868 113.002Z" fill="#3E97D4"/>
<path d="M45.466 108.511C45.8054 108.61 46.0973 108.742 46.3418 108.908C46.5776 109.071 46.7784 109.256 46.9443 109.465C47.0989 109.68 47.218 109.904 47.3016 110.136L47.7442 109.344L49.3107 109.799L46.5772 119.201L44.8148 118.688L45.9006 114.954C45.6032 115.198 45.2556 115.37 44.858 115.472C44.4491 115.58 43.9879 115.559 43.4745 115.409C42.8652 115.232 42.3699 114.923 41.9885 114.481C41.5959 114.046 41.3406 113.528 41.2227 112.927C41.0935 112.333 41.1264 111.7 41.3213 111.03C41.5111 110.377 41.8212 109.83 42.2515 109.389C42.6732 108.945 43.1621 108.644 43.7181 108.484C44.2741 108.325 44.8567 108.334 45.466 108.511ZM45.4357 110.173C45.0876 110.072 44.7602 110.062 44.4536 110.143C44.1357 110.23 43.8622 110.391 43.6333 110.626C43.4018 110.871 43.2317 111.18 43.1228 111.554C43.014 111.929 42.9918 112.281 43.0562 112.611C43.1181 112.95 43.2612 113.237 43.4854 113.472C43.6984 113.714 43.979 113.885 44.3271 113.986C44.6666 114.085 44.9952 114.091 45.3131 114.004C45.6198 113.923 45.8932 113.762 46.1334 113.52C46.3648 113.276 46.535 112.967 46.6438 112.593C46.7527 112.218 46.7761 111.862 46.7142 111.523C46.6411 111.19 46.4968 110.907 46.2812 110.674C46.057 110.439 45.7751 110.272 45.4357 110.173Z" fill="#3E97D4"/>
<path d="M37.6781 105.419C38.2618 105.71 38.7221 106.107 39.0587 106.61C39.3832 107.116 39.5639 107.678 39.6007 108.294C39.6254 108.914 39.4818 109.536 39.1701 110.161C38.8502 110.801 38.4371 111.294 37.9307 111.639C37.4121 111.988 36.8508 112.179 36.247 112.211C35.639 112.252 35.0432 112.127 34.4594 111.835C33.8675 111.54 33.4093 111.139 33.0848 110.632C32.7482 110.13 32.5675 109.568 32.5429 108.948C32.506 108.332 32.6455 107.708 32.9613 107.075C33.2771 106.442 33.6943 105.952 34.2129 105.603C34.7193 105.258 35.2765 105.065 35.8844 105.024C36.4883 104.992 37.0862 105.123 37.6781 105.419ZM36.9675 106.842C36.6919 106.704 36.4162 106.648 36.1406 106.672C35.857 106.692 35.5875 106.806 35.3323 107.013C35.0689 107.216 34.8381 107.516 34.6397 107.913C34.4413 108.311 34.3422 108.671 34.3424 108.996C34.3304 109.324 34.4015 109.608 34.5556 109.847C34.6976 110.09 34.9024 110.278 35.1699 110.412C35.4294 110.542 35.703 110.592 35.9907 110.564C36.2744 110.543 36.548 110.432 36.8113 110.229C37.0625 110.03 37.2872 109.732 37.4856 109.335C37.684 108.937 37.7892 108.574 37.8012 108.246C37.805 107.914 37.734 107.63 37.5879 107.395C37.4338 107.156 37.227 106.971 36.9675 106.842Z" fill="#3E97D4"/>
<path d="M30.7854 101.272C31.2306 101.6 31.5467 101.973 31.7335 102.392C31.9077 102.813 31.947 103.264 31.8517 103.745C31.7509 104.234 31.5045 104.745 31.1123 105.278L28.7512 108.486L27.2732 107.398L29.5215 104.343C29.8492 103.897 30.0051 103.495 29.9892 103.134C29.9659 102.768 29.7609 102.442 29.3741 102.158C29.1259 101.975 28.8667 101.869 28.5963 101.838C28.3206 101.815 28.0501 101.87 27.7848 102.001C27.5069 102.134 27.2524 102.357 27.0214 102.671L24.8537 105.617L23.3867 104.537L27.4481 99.0176L28.74 99.9687L28.1996 100.955C28.5912 100.76 29.0137 100.682 29.4673 100.724C29.9154 100.772 30.3548 100.955 30.7854 101.272Z" fill="#3E97D4"/>
<path d="M23.9001 95.5649C24.2426 95.9018 24.4923 96.2491 24.6492 96.6067C24.7932 96.9645 24.8155 97.3361 24.7163 97.7216C24.6106 98.1135 24.3449 98.5261 23.9191 98.9592L21.8793 101.034L22.713 101.854L21.6359 102.95L20.8022 102.13L19.3508 103.315L18.1875 102.171L19.4934 100.843L18.2041 99.5748L19.2812 98.4791L20.5705 99.7471L22.6295 97.6527C22.8455 97.4329 22.9464 97.2333 22.932 97.054C22.9177 96.8746 22.7942 96.6705 22.5615 96.4417L21.9217 95.8124L23.0179 94.6973L23.9001 95.5649Z" fill="#3E97D4"/>
<path d="M17.4221 87.0139C17.7916 87.6061 18.0084 88.2188 18.0723 88.8521C18.1363 89.4855 18.0187 90.0932 17.7196 90.6753C17.4204 91.2575 16.9017 91.7789 16.1636 92.2397L11.2041 95.3356L10.2323 93.7783L15.2033 90.6752C15.6032 90.4256 15.9007 90.149 16.0959 89.8455C16.2835 89.5467 16.3658 89.2335 16.343 88.9058C16.3153 88.5704 16.1935 88.2297 15.9776 87.8836C15.7568 87.5299 15.5043 87.2707 15.22 87.1062C14.9309 86.934 14.611 86.8665 14.2603 86.9038C13.9019 86.9459 13.5228 87.0917 13.123 87.3413L8.15196 90.4444L7.18018 88.887L12.1397 85.7911C12.8778 85.3303 13.5765 85.0973 14.2355 85.0919C14.8946 85.0866 15.4993 85.2594 16.0496 85.6105C16.5951 85.9539 17.0526 86.4217 17.4221 87.0139Z" fill="#3E97D4"/>
<path d="M13.4888 79.2993C13.7247 79.8786 13.8376 80.4198 13.8274 80.9232C13.8171 81.4266 13.698 81.8667 13.4698 82.2435C13.2417 82.6203 12.9288 82.9093 12.5313 83.1105L11.8439 81.4233C11.9863 81.3163 12.1041 81.1851 12.1973 81.0296C12.2822 80.8776 12.3281 80.7022 12.3353 80.5036C12.3424 80.3049 12.2981 80.088 12.2024 79.853C12.11 79.6263 12.0054 79.4536 11.8885 79.3349C11.7633 79.2195 11.6324 79.1505 11.4959 79.1278C11.356 79.0968 11.2273 79.1052 11.1098 79.153C10.9336 79.2249 10.8198 79.33 10.7686 79.4683C10.7089 79.6101 10.689 79.7895 10.7089 80.0065C10.7288 80.2235 10.7658 80.4825 10.8199 80.7835C10.8843 81.1096 10.9344 81.4367 10.9701 81.7647C10.9941 82.0877 10.9851 82.3899 10.9431 82.6713C10.9012 82.9527 10.8027 83.2033 10.6476 83.4231C10.4925 83.6429 10.2597 83.8161 9.94914 83.9427C9.57147 84.0966 9.19473 84.1327 8.81891 84.0509C8.4347 83.9726 8.07583 83.7763 7.74227 83.462C7.40871 83.1477 7.13078 82.7177 6.90849 82.1721C6.59729 81.4082 6.52312 80.7337 6.68597 80.1485C6.84882 79.5634 7.21528 79.1057 7.78535 78.7755L8.43683 80.3746C8.26432 80.5036 8.15942 80.6785 8.12213 80.8993C8.07303 81.1151 8.10661 81.3657 8.22289 81.6511C8.346 81.9533 8.49459 82.1619 8.66867 82.2769C8.84275 82.3919 9.01791 82.4135 9.19416 82.3417C9.31165 82.2938 9.39605 82.2007 9.44733 82.0623C9.4952 81.9156 9.51337 81.732 9.50186 81.5115C9.48195 81.2945 9.44494 81.0355 9.39084 80.7346C9.2932 80.2067 9.23629 79.7307 9.2201 79.3066C9.19552 78.8859 9.26216 78.5211 9.42005 78.212C9.56955 77.9064 9.8709 77.6612 10.3241 77.4765C10.7269 77.3123 11.1323 77.2744 11.5401 77.3627C11.9396 77.4543 12.3095 77.6657 12.6499 77.9968C12.9868 78.3195 13.2665 78.7537 13.4888 79.2993Z" fill="#3E97D4"/>
<path d="M5.56487 69.7979L3.64447 69.8424L5.07274 71.1157L3.98693 71.9911L3.03949 70.3658L2.65555 72.1896L1.42712 71.7383L2.35338 70.0345L0.505165 70.6184L0.29541 69.3023L2.23566 69.2959L0.825676 67.9646L1.84163 67.1692L2.8025 68.7924L3.19558 66.9395L4.46858 67.4113L3.52461 69.0904L5.35939 68.5086L5.56487 69.7979Z" fill="#3E97D4"/>
<path d="M9.49144 60.1886L0.333496 55.8497L0.524123 53.7779L10.3187 51.1973L10.1406 53.1336L2.51311 55.0125L9.66836 58.2657L9.49144 60.1886ZM7.47962 58.4603L6.10294 57.842L6.54649 53.0213L8.01163 52.6782L7.47962 58.4603Z" fill="#3E97D4"/>
<path d="M11.9501 46.0472C11.852 46.3869 11.7205 46.6791 11.5554 46.924C11.3928 47.1601 11.2074 47.3613 10.999 47.5275C10.7844 47.6826 10.5612 47.8021 10.3293 47.8861L11.1217 48.3274L10.6689 49.895L1.26465 47.1776L1.77406 45.414L5.50965 46.4934C5.26526 46.1963 5.09198 45.849 4.98981 45.4515C4.88145 45.0427 4.90148 44.5814 5.0499 44.0675C5.22599 43.4579 5.53435 42.9619 5.97496 42.5797C6.40938 42.1862 6.92681 41.93 7.52725 41.8109C8.12151 41.6807 8.75388 41.7124 9.42437 41.9062C10.0774 42.0949 10.625 42.4041 11.0669 42.8337C11.5114 43.2547 11.8137 43.7431 11.974 44.299C12.1342 44.8548 12.1262 45.4376 11.9501 46.0472ZM10.2881 46.0199C10.3888 45.6715 10.3984 45.3441 10.3172 45.0375C10.2297 44.7197 10.068 44.4465 9.83216 44.2179C9.58757 43.9868 9.27806 43.8172 8.90363 43.709C8.5292 43.6008 8.17693 43.5792 7.84681 43.6443C7.50799 43.7068 7.22121 43.8504 6.98649 44.0751C6.74558 44.2886 6.57481 44.5695 6.47418 44.9179C6.37607 45.2575 6.37075 45.5863 6.45821 45.9041C6.53948 46.2106 6.70115 46.4838 6.94322 46.7236C7.18781 46.9547 7.49732 47.1244 7.87175 47.2326C8.24618 47.3407 8.60281 47.3636 8.94163 47.3011C9.27427 47.2273 9.55669 47.0825 9.78889 46.8665C10.0236 46.6418 10.19 46.3596 10.2881 46.0199Z" fill="#3E97D4"/>
<path d="M15.028 38.2513C14.7375 38.8357 14.3414 39.2967 13.8396 39.6343C13.3337 39.9598 12.7728 40.1415 12.1568 40.1794C11.5368 40.2051 10.9143 40.0626 10.2895 39.7519C9.64838 39.4331 9.155 39.0208 8.80933 38.5149C8.45959 37.9968 8.26782 37.4358 8.23401 36.8319C8.19208 36.2239 8.31635 35.6277 8.60682 35.0433C8.90133 34.4508 9.30152 33.9918 9.80739 33.6663C10.3092 33.3287 10.8701 33.147 11.4901 33.1213C12.1061 33.0834 12.7306 33.2218 13.3635 33.5365C13.9965 33.8513 14.4879 34.2677 14.8376 34.7857C15.1833 35.2917 15.3771 35.8486 15.419 36.4566C15.4528 37.0605 15.3225 37.6588 15.028 38.2513ZM13.6038 37.5431C13.7409 37.2671 13.797 36.9914 13.7721 36.7158C13.7512 36.432 13.6371 36.1627 13.4298 35.9078C13.2265 35.6448 12.9261 35.4144 12.5284 35.2167C12.1308 35.019 11.7699 34.9205 11.4456 34.9212C11.1173 34.9098 10.8338 34.9814 10.595 35.136C10.3521 35.2784 10.1641 35.4836 10.031 35.7514C9.90194 36.0112 9.8519 36.2849 9.88093 36.5727C9.90185 36.8564 10.0139 37.1298 10.2172 37.3928C10.4163 37.6437 10.7147 37.868 11.1124 38.0657C11.51 38.2634 11.873 38.368 12.2013 38.3794C12.5337 38.3827 12.8172 38.3111 13.052 38.1646C13.2907 38.01 13.4747 37.8029 13.6038 37.5431Z" fill="#3E97D4"/>
<path d="M19.1613 31.3515C18.8344 31.7974 18.4617 32.1141 18.0432 32.3017C17.6227 32.4766 17.1718 32.5168 16.6904 32.4223C16.2017 32.3224 15.6907 32.0767 15.1572 31.6854L11.9453 29.3294L13.0306 27.8493L16.089 30.0927C16.5348 30.4197 16.938 30.5749 17.2985 30.5583C17.6644 30.5345 17.9894 30.3288 18.2734 29.9414C18.4557 29.6929 18.5616 29.4334 18.5914 29.163C18.6138 28.8871 18.5592 28.6167 18.4277 28.3516C18.2942 28.0738 18.0703 27.8197 17.7561 27.5892L14.8073 25.4262L15.8846 23.957L21.4094 28.0096L20.4608 29.3034L19.4735 28.7646C19.6698 29.1559 19.7477 29.5784 19.7073 30.0321C19.6595 30.4804 19.4776 30.9202 19.1613 31.3515Z" fill="#3E97D4"/>
<path d="M24.8553 24.4542C24.5191 24.7974 24.1723 25.0478 23.815 25.2053C23.4575 25.3499 23.086 25.373 22.7005 25.2743C22.3084 25.1693 21.8955 24.9043 21.4618 24.4792L19.3836 22.4425L18.5653 23.2778L17.468 22.2024L18.2863 21.3671L17.0986 19.9175L18.2405 18.752L19.5709 20.0558L20.8364 18.764L21.9337 19.8395L20.6682 21.1313L22.7658 23.187C22.9859 23.4027 23.1856 23.5032 23.3649 23.4886C23.5442 23.4739 23.748 23.3501 23.9764 23.117L24.6044 22.4759L25.7212 23.5704L24.8553 24.4542Z" fill="#3E97D4"/>
<path d="M33.3943 17.9594C32.8029 18.33 32.1907 18.5479 31.5576 18.613C30.9246 18.678 30.3167 18.5615 29.7342 18.2633C29.1516 17.9651 28.6294 17.4472 28.1674 16.7097L25.0635 11.7546L26.6188 10.78L29.73 15.7465C29.9802 16.146 30.2572 16.4431 30.561 16.6379C30.8601 16.8249 31.1733 16.9067 31.5009 16.8833C31.8362 16.8551 32.1767 16.7327 32.5223 16.5161C32.8756 16.2947 33.1343 16.0416 33.2982 15.757C33.4699 15.4676 33.5368 15.1475 33.4989 14.7968C33.4563 14.4384 33.3098 14.0595 33.0596 13.66L29.9484 8.69343L31.5038 7.71875L34.6077 12.6738C35.0697 13.4113 35.3039 14.1096 35.3104 14.7689C35.3169 15.4281 35.1451 16.0332 34.795 16.5842C34.4527 17.1304 33.9858 17.5888 33.3943 17.9594Z" fill="#3E97D4"/>
<path d="M41.1004 14.0125C40.5218 14.2495 39.9808 14.3633 39.4775 14.354C38.9742 14.3446 38.534 14.2262 38.1568 13.9987C37.7797 13.7711 37.4902 13.4587 37.2884 13.0614L38.9741 12.371C39.0813 12.5132 39.2127 12.6308 39.3682 12.7238C39.5204 12.8084 39.6958 12.8541 39.8944 12.8609C40.0931 12.8677 40.3098 12.823 40.5447 12.7268C40.7711 12.634 40.9436 12.5291 41.0621 12.412C41.1772 12.2865 41.246 12.1555 41.2684 12.0189C41.2993 11.879 41.2906 11.7503 41.2426 11.6328C41.1704 11.4567 41.0652 11.3431 40.9267 11.292C40.7849 11.2326 40.6055 11.213 40.3886 11.2333C40.1716 11.2536 39.9128 11.2911 39.612 11.3457C39.286 11.4106 38.9591 11.4613 38.6312 11.4976C38.3083 11.5222 38.0061 11.5137 37.7247 11.4722C37.4433 11.4307 37.1926 11.3326 36.9726 11.1779C36.7525 11.0231 36.579 10.7906 36.4519 10.4802C36.2973 10.1027 36.2606 9.72599 36.3417 9.34995C36.4193 8.96553 36.615 8.60623 36.9286 8.27206C37.2423 7.93789 37.6717 7.65916 38.2168 7.43588C38.98 7.12328 39.6543 7.04792 40.2396 7.20978C40.8249 7.37164 41.2831 7.73737 41.6142 8.30699L40.0166 8.96138C39.8873 8.78905 39.7122 8.68444 39.4915 8.64753C39.2756 8.59879 39.0252 8.63282 38.74 8.74962C38.4381 8.87328 38.2298 9.02227 38.1151 9.19659C38.0004 9.3709 37.9791 9.54614 38.0512 9.72229C38.0993 9.83973 38.1926 9.92398 38.331 9.97503C38.4778 10.0226 38.6614 10.0405 38.8817 10.0286C39.0987 10.0083 39.3575 9.97084 39.6583 9.9162C40.186 9.81763 40.6618 9.75987 41.0857 9.74294C41.5063 9.71762 41.8712 9.78365 42.1804 9.94104C42.4863 10.09 42.7319 10.391 42.9174 10.844C43.0822 11.2466 43.1209 11.652 43.0333 12.0601C42.9424 12.4597 42.7316 12.8301 42.4012 13.1711C42.0792 13.5087 41.6456 13.7892 41.1004 14.0125Z" fill="#3E97D4"/>
<path d="M50.5863 6.0702L50.5384 4.14949L49.2678 5.58026L48.3907 4.49574L50.0141 3.5453L48.1899 3.16445L48.6391 1.93499L50.3441 2.85847L49.7571 1.01091L51.0726 0.798828L51.0823 2.73944L52.4109 1.32688L53.2079 2.34166L51.5867 3.30553L53.4399 3.69548L52.9704 4.96955L51.2901 4.0283L51.8748 5.86245L50.5863 6.0702Z" fill="#3E97D4"/>
<path d="M66.0052 56.6121L53.1173 69.5L51 67.3827L63.8864 54.4948H52.5288V51.5H69V67.9712H66.0052V56.6121Z" fill="#3E97D4"/>
</g>
<defs>
<clipPath id="clip0_66_2498">
<rect width="120" height="121" fill="white"/>
</clipPath>
</defs>
</svg>
