<svg width="170" height="41" viewBox="0 0 170 41" fill="none" xmlns="http://www.w3.org/2000/svg">
<g clip-path="url(#clip0_3_6285)">
<path d="M51.2773 29.3232H63.2293V25.7232H55.5253V12.1632H51.2773V29.3232Z" fill="#273A29"/>
<path d="M70.3098 26.9232C68.6058 26.9232 67.7178 25.4352 67.7178 23.2032C67.7178 20.9712 68.6058 19.4592 70.3098 19.4592C72.0138 19.4592 72.9258 20.9712 72.9258 23.2032C72.9258 25.4352 72.0138 26.9232 70.3098 26.9232ZM70.3338 29.7072C74.2938 29.7072 76.8858 26.8992 76.8858 23.2032C76.8858 19.5072 74.2938 16.6992 70.3338 16.6992C66.3978 16.6992 63.7578 19.5072 63.7578 23.2032C63.7578 26.8992 66.3978 29.7072 70.3338 29.7072Z" fill="#273A29"/>
<path d="M83.7406 33.5708C85.5646 33.5708 87.1726 33.1628 88.2526 32.2028C89.2366 31.3148 89.8846 29.9708 89.8846 28.1228V17.0348H86.1406V18.3548H86.0926C85.3726 17.3228 84.2686 16.6748 82.6366 16.6748C79.5886 16.6748 77.4766 19.2188 77.4766 22.8188C77.4766 26.5868 80.0446 28.6508 82.8046 28.6508C84.2926 28.6508 85.2286 28.0508 85.9486 27.2348H86.0446V28.4588C86.0446 29.9468 85.3486 30.8108 83.6926 30.8108C82.3966 30.8108 81.7486 30.2588 81.5326 29.6108H77.7406C78.1246 32.1788 80.3566 33.5708 83.7406 33.5708ZM83.7166 25.7468C82.2526 25.7468 81.2926 24.5468 81.2926 22.6988C81.2926 20.8268 82.2526 19.6268 83.7166 19.6268C85.3486 19.6268 86.2126 21.0188 86.2126 22.6748C86.2126 24.4028 85.4206 25.7468 83.7166 25.7468Z" fill="#273A29"/>
<path d="M97.5832 26.9232C95.8792 26.9232 94.9912 25.4352 94.9912 23.2032C94.9912 20.9712 95.8792 19.4592 97.5832 19.4592C99.2872 19.4592 100.199 20.9712 100.199 23.2032C100.199 25.4352 99.2872 26.9232 97.5832 26.9232ZM97.6072 29.7072C101.567 29.7072 104.159 26.8992 104.159 23.2032C104.159 19.5072 101.567 16.6992 97.6072 16.6992C93.6712 16.6992 91.0312 19.5072 91.0312 23.2032C91.0312 26.8992 93.6712 29.7072 97.6072 29.7072Z" fill="#273A29"/>
<path d="M105.301 29.3232H109.213V17.0352H105.301V29.3232ZM105.301 15.3312H109.213V12.1632H105.301V15.3312Z" fill="#273A29"/>
<path d="M110.91 33.3788H114.822V28.0508H114.87C115.638 29.0828 116.766 29.7068 118.35 29.7068C121.566 29.7068 123.702 27.1628 123.702 23.1788C123.702 19.4828 121.71 16.6748 118.446 16.6748C116.766 16.6748 115.566 17.4188 114.726 18.5228H114.654V17.0348H110.91V33.3788ZM117.342 26.6828C115.662 26.6828 114.702 25.3148 114.702 23.3228C114.702 21.3308 115.566 19.8188 117.27 19.8188C118.95 19.8188 119.742 21.2108 119.742 23.3228C119.742 25.4108 118.83 26.6828 117.342 26.6828Z" fill="#273A29"/>
<path d="M130.072 29.7068C133.288 29.7068 135.664 28.3148 135.664 25.6268C135.664 22.4828 133.12 21.9308 130.96 21.5708C129.4 21.2828 128.008 21.1628 128.008 20.2988C128.008 19.5308 128.752 19.1708 129.712 19.1708C130.792 19.1708 131.536 19.5068 131.68 20.6108H135.28C135.088 18.1868 133.216 16.6748 129.736 16.6748C126.832 16.6748 124.432 18.0188 124.432 20.6108C124.432 23.4908 126.712 24.0668 128.848 24.4268C130.48 24.7148 131.968 24.8348 131.968 25.9388C131.968 26.7308 131.224 27.1628 130.048 27.1628C128.752 27.1628 127.936 26.5628 127.792 25.3388H124.096C124.216 28.0508 126.472 29.7068 130.072 29.7068Z" fill="#273A29"/>
<path d="M140.978 29.6832C142.682 29.6832 143.762 29.0112 144.65 27.8112H144.722V29.3232H148.466V17.0352H144.554V23.8992C144.554 25.3632 143.738 26.3712 142.394 26.3712C141.146 26.3712 140.546 25.6272 140.546 24.2832V17.0352H136.658V25.0992C136.658 27.8352 138.146 29.6832 140.978 29.6832Z" fill="#273A29"/>
<path d="M150.168 29.3228H154.08V22.4348C154.08 20.9708 154.8 19.9388 156.024 19.9388C157.2 19.9388 157.752 20.7068 157.752 22.0268V29.3228H161.664V22.4348C161.664 20.9708 162.36 19.9388 163.608 19.9388C164.784 19.9388 165.336 20.7068 165.336 22.0268V29.3228H169.248V21.3308C169.248 18.5708 167.856 16.6748 165.072 16.6748C163.488 16.6748 162.168 17.3468 161.208 18.8348H161.16C160.536 17.5148 159.312 16.6748 157.704 16.6748C155.928 16.6748 154.752 17.5148 153.984 18.7868H153.912V17.0348H150.168V29.3228Z" fill="#273A29"/>
<path fill-rule="evenodd" clip-rule="evenodd" d="M20.1015 40.3232C31.1473 40.3232 40.1015 31.3689 40.1015 20.3232C40.1015 9.27754 31.1473 0.323242 20.1015 0.323242C9.05585 0.323242 0.101562 9.27754 0.101562 20.3232C0.101562 31.3689 9.05585 40.3232 20.1015 40.3232ZM23.1885 15.7758C24.8933 14.0709 24.8933 11.3068 23.1885 9.6019C21.4836 7.89702 18.7195 7.89702 17.0146 9.6019C15.3098 11.3068 15.3098 14.0709 17.0146 15.7758L20.1015 18.8627L23.1885 15.7758ZM24.649 23.4102C26.3539 25.1151 29.118 25.1151 30.8229 23.4102C32.5277 21.7053 32.5277 18.9412 30.8229 17.2363C29.118 15.5315 26.3539 15.5315 24.649 17.2363L21.5621 20.3233L24.649 23.4102ZM23.1885 31.0446C24.8933 29.3397 24.8933 26.5756 23.1885 24.8707L20.1015 21.7838L17.0146 24.8707C15.3098 26.5756 15.3098 29.3397 17.0146 31.0446C18.7195 32.7495 21.4836 32.7495 23.1885 31.0446ZM9.38019 23.4102C7.67535 21.7053 7.67535 18.9412 9.38019 17.2363C11.0851 15.5315 13.8492 15.5315 15.5541 17.2363L18.641 20.3233L15.5541 23.4102C13.8492 25.1151 11.0851 25.1151 9.38019 23.4102Z" fill="#E2A76F"/>
</g>
<defs>
<clipPath id="clip0_3_6285">
<rect width="170" height="41" fill="white"/>
</clipPath>
</defs>
</svg>
