<svg width="167" height="51" viewBox="0 0 167 51" fill="none" xmlns="http://www.w3.org/2000/svg">
<g clip-path="url(#clip0_93_3448)">
<path d="M142.019 0.5H24.9805C11.1844 0.5 0 11.6931 0 25.5C0 39.3069 11.1844 50.5 24.9805 50.5H167V25.5V0.5H142.019Z" fill="#3E97D3"/>
<path d="M161.611 5.41602H51.2832V45.5863H161.611V5.41602Z" fill="white"/>
<path d="M17.8857 35.9775C17.8857 35.5819 17.6384 32.69 22.9738 32.2944C22.9738 32.2944 23.4673 33.4314 23.4673 34.816C23.4673 36.2006 22.4051 38.4251 20.157 38.4251C17.9089 38.4251 17.8846 36.3731 17.8846 35.9775M29.4316 34.815C29.4316 33.4304 29.9252 32.2933 29.9252 32.2933C35.2605 32.6889 35.0132 35.5808 35.0132 35.9764C35.0132 36.372 34.9889 38.424 32.7408 38.424C30.4927 38.424 29.4305 36.1996 29.4305 34.815M13.7024 31.318C13.7024 29.3157 15.9991 28.5922 17.6109 28.5922C19.2227 28.5922 21.1305 29.9081 21.1305 29.9081C21.1305 29.9081 16.9313 30.0784 15.6471 33.8017C15.6471 33.8017 13.7024 33.3193 13.7024 31.317M31.7346 29.9081C31.7346 29.9081 33.6424 28.5922 35.2542 28.5922C36.866 28.5922 39.1627 29.3157 39.1627 31.318C39.1627 33.3204 37.218 33.8027 37.218 33.8027C36.1251 30.2275 31.7346 29.9091 31.7346 29.9091M28.4434 29.5135L24.3425 29.5378C22.4897 26.794 19.3527 25.9531 17.4016 25.9531C15.4505 25.9531 11.0537 27.1145 11.0537 31.4164C11.0537 35.7183 15.1789 36.4101 15.1789 36.4101C15.1789 36.9294 15.5245 41.1065 20.1687 41.1065C24.8128 41.1065 26.1467 36.83 26.1467 34.8277C26.1467 32.8253 25.6774 32.0839 25.6774 32.0839H27.1349C27.1349 32.0839 26.7153 32.4551 26.7153 34.7293C26.7153 37.0035 28.1728 41.0822 32.8909 41.0822C37.609 41.0822 37.683 36.3604 37.683 36.3604C40.2027 35.8167 41.7829 33.789 41.7829 31.4407C41.7829 29.0925 39.8064 25.9531 35.361 25.9531C30.9155 25.9531 28.4444 29.5125 28.4444 29.5125" fill="white"/>
<mask id="mask0_93_3448" style="mask-type:luminance" maskUnits="userSpaceOnUse" x="11" y="25" width="31" height="17">
<path d="M17.8857 35.9775C17.8857 35.5819 17.6384 32.69 22.9738 32.2944C22.9738 32.2944 23.4673 33.4314 23.4673 34.816C23.4673 36.2006 22.4051 38.4251 20.157 38.4251C17.9089 38.4251 17.8846 36.3731 17.8846 35.9775M29.4316 34.815C29.4316 33.4304 29.9252 32.2933 29.9252 32.2933C35.2605 32.6889 35.0132 35.5808 35.0132 35.9764C35.0132 36.372 34.9889 38.424 32.7408 38.424C30.4927 38.424 29.4305 36.1996 29.4305 34.815M13.7024 31.318C13.7024 29.3157 15.9991 28.5922 17.6109 28.5922C19.2227 28.5922 21.1305 29.9081 21.1305 29.9081C21.1305 29.9081 16.9313 30.0784 15.6471 33.8017C15.6471 33.8017 13.7024 33.3193 13.7024 31.317M31.7346 29.9081C31.7346 29.9081 33.6424 28.5922 35.2542 28.5922C36.866 28.5922 39.1627 29.3157 39.1627 31.318C39.1627 33.3204 37.218 33.8027 37.218 33.8027C36.1251 30.2275 31.7346 29.9091 31.7346 29.9091M28.4434 29.5135L24.3425 29.5378C22.4897 26.794 19.3527 25.9531 17.4016 25.9531C15.4505 25.9531 11.0537 27.1145 11.0537 31.4164C11.0537 35.7183 15.1789 36.4101 15.1789 36.4101C15.1789 36.9294 15.5245 41.1065 20.1687 41.1065C24.8128 41.1065 26.1467 36.83 26.1467 34.8277C26.1467 32.8253 25.6774 32.0839 25.6774 32.0839H27.1349C27.1349 32.0839 26.7153 32.4551 26.7153 34.7293C26.7153 37.0035 28.1728 41.0822 32.8909 41.0822C37.609 41.0822 37.683 36.3604 37.683 36.3604C40.2027 35.8167 41.7829 33.789 41.7829 31.4407C41.7829 29.0925 39.8064 25.9531 35.361 25.9531C30.9155 25.9531 28.4444 29.5125 28.4444 29.5125" fill="white"/>
</mask>
<g mask="url(#mask0_93_3448)">
<path d="M41.7818 25.9531H11.0537V41.1065H41.7818V25.9531Z" fill="white"/>
</g>
<path d="M13.6714 19.684C13.6714 17.6817 15.6161 17.1994 15.6161 17.1994C16.709 20.7746 21.0995 21.093 21.0995 21.093C21.0995 21.093 19.1917 22.4088 17.5799 22.4088C15.9681 22.4088 13.6714 21.6853 13.6714 19.683M31.7037 21.093C31.7037 21.093 35.9028 20.9227 37.187 17.1994C37.187 17.1994 39.1317 17.6817 39.1317 19.684C39.1317 21.6864 36.835 22.4099 35.2232 22.4099C33.6114 22.4099 31.7037 21.094 31.7037 21.094M17.8209 15.0236C17.8209 14.628 17.8452 12.5759 20.0933 12.5759C22.3414 12.5759 23.4036 14.8004 23.4036 16.185C23.4036 17.5696 22.91 18.7067 22.91 18.7067C17.5746 18.3111 17.822 15.4192 17.822 15.0236M29.3678 16.186C29.3678 14.8014 30.4301 12.577 32.6781 12.577C34.9262 12.577 34.9505 14.629 34.9505 15.0246C34.9505 15.4202 35.1979 18.3121 29.8625 18.7077C29.8625 18.7077 29.3689 17.5706 29.3689 16.186M32.6665 9.89453C28.0224 9.89453 26.6885 14.171 26.6885 16.1734C26.6885 18.1757 27.1578 18.9172 27.1578 18.9172H25.7003C25.7003 18.9172 26.1199 18.5459 26.1199 16.2717C26.1199 13.9976 24.6624 9.91886 19.9443 9.91886C15.2261 9.91886 15.1522 14.6407 15.1522 14.6407C12.6324 15.1844 11.0513 17.2121 11.0513 19.5603C11.0513 21.9085 13.0277 25.0479 17.4732 25.0479C21.9186 25.0479 24.3897 21.4886 24.3897 21.4886L28.4906 21.4642C30.3434 24.208 33.4804 25.049 35.4314 25.049C37.3825 25.049 41.7794 23.8875 41.7794 19.5857C41.7794 15.2838 37.6542 14.592 37.6542 14.592C37.6542 14.0727 37.3085 9.89559 32.6644 9.89559L32.6665 9.89453Z" fill="white"/>
<mask id="mask1_93_3448" style="mask-type:luminance" maskUnits="userSpaceOnUse" x="11" y="9" width="31" height="17">
<path d="M13.6714 19.684C13.6714 17.6817 15.6161 17.1994 15.6161 17.1994C16.709 20.7746 21.0995 21.093 21.0995 21.093C21.0995 21.093 19.1917 22.4088 17.5799 22.4088C15.9681 22.4088 13.6714 21.6853 13.6714 19.683M31.7037 21.093C31.7037 21.093 35.9028 20.9227 37.187 17.1994C37.187 17.1994 39.1317 17.6817 39.1317 19.684C39.1317 21.6864 36.835 22.4099 35.2232 22.4099C33.6114 22.4099 31.7037 21.094 31.7037 21.094M17.8209 15.0236C17.8209 14.628 17.8452 12.5759 20.0933 12.5759C22.3414 12.5759 23.4036 14.8004 23.4036 16.185C23.4036 17.5696 22.91 18.7067 22.91 18.7067C17.5746 18.3111 17.822 15.4192 17.822 15.0236M29.3678 16.186C29.3678 14.8014 30.4301 12.577 32.6781 12.577C34.9262 12.577 34.9505 14.629 34.9505 15.0246C34.9505 15.4202 35.1979 18.3121 29.8625 18.7077C29.8625 18.7077 29.3689 17.5706 29.3689 16.186M32.6665 9.89453C28.0224 9.89453 26.6885 14.171 26.6885 16.1734C26.6885 18.1757 27.1578 18.9172 27.1578 18.9172H25.7003C25.7003 18.9172 26.1199 18.5459 26.1199 16.2717C26.1199 13.9976 24.6624 9.91886 19.9443 9.91886C15.2261 9.91886 15.1522 14.6407 15.1522 14.6407C12.6324 15.1844 11.0513 17.2121 11.0513 19.5603C11.0513 21.9085 13.0277 25.0479 17.4732 25.0479C21.9186 25.0479 24.3897 21.4886 24.3897 21.4886L28.4906 21.4642C30.3434 24.208 33.4804 25.049 35.4314 25.049C37.3825 25.049 41.7794 23.8875 41.7794 19.5857C41.7794 15.2838 37.6542 14.592 37.6542 14.592C37.6542 14.0727 37.3085 9.89559 32.6644 9.89559L32.6665 9.89453Z" fill="white"/>
</mask>
<g mask="url(#mask1_93_3448)">
<path d="M41.7813 9.89453H11.0532V25.0479H41.7813V9.89453Z" fill="white"/>
</g>
<path d="M60.4405 31.5786V17.9082H61.6824L69.3937 29.7381V17.9082H70.5141V31.5786H69.2722L61.5693 19.8249V31.5786H60.4395H60.4405Z" fill="#3E97D3"/>
<path d="M76.0768 28.0568C76.0768 28.4809 76.1392 28.8681 76.2639 29.2203C76.3876 29.5725 76.5672 29.8708 76.8008 30.1173C77.0344 30.3637 77.3208 30.552 77.6601 30.6832C77.9994 30.8133 78.383 30.863 78.8132 30.8323C79.255 30.8017 79.6662 30.6673 80.0456 30.4304C80.425 30.1945 80.7389 29.8793 80.9884 29.4869C81.1871 29.1695 81.3456 28.8237 81.465 28.4492C81.5834 28.0748 81.6606 27.6771 81.6986 27.254V21.5918H82.8285V31.5802H81.6986V29.8888C81.4185 30.4864 81.0454 30.9455 80.5783 31.2671C80.1111 31.5886 79.6038 31.7917 79.0563 31.8784C78.4084 31.9472 77.8313 31.907 77.324 31.7579C76.8167 31.6077 76.3854 31.3644 76.0314 31.028C75.6762 30.6916 75.4067 30.2728 75.2239 29.7714C75.04 29.27 74.9544 28.6988 74.967 28.0578V21.5918H76.0779V28.0578L76.0768 28.0568Z" fill="#3E97D3"/>
<path d="M88.0815 31.5794H86.9517V21.591H88.0815V23.459C88.3172 22.9735 88.6248 22.5747 89 22.2627C89.3773 21.9517 89.7842 21.7275 90.2229 21.5899C90.6615 21.4524 91.1149 21.4059 91.5821 21.4493C92.0482 21.4926 92.4942 21.6206 92.917 21.8322L92.4413 22.8318C92.1422 22.6826 91.822 22.5916 91.4795 22.561C91.1371 22.5303 90.8021 22.5557 90.4755 22.6403C90.1489 22.7249 89.8392 22.8688 89.5464 23.075C89.2536 23.2813 89.0074 23.5426 88.8087 23.8599C88.554 24.2523 88.3584 24.6945 88.2253 25.1863C88.091 25.6782 88.0244 26.1743 88.0244 26.6725L88.0805 31.5773L88.0815 31.5794Z" fill="#3E97D3"/>
<path d="M102.597 24.1876C102.559 23.8756 102.442 23.6112 102.242 23.3933C102.043 23.1754 101.806 22.9977 101.528 22.8602C101.251 22.7237 100.954 22.6232 100.637 22.5608C100.319 22.4984 100.024 22.4677 99.7489 22.4677C99.5058 22.4677 99.2416 22.4952 98.9551 22.5524C98.6687 22.6084 98.4045 22.7004 98.1614 22.8284C97.9183 22.9564 97.7154 23.1246 97.5505 23.333C97.3856 23.5414 97.3031 23.8016 97.3031 24.1136C97.3031 24.4256 97.3877 24.6784 97.5558 24.8752C97.7238 25.0719 97.9479 25.2316 98.228 25.3565C98.508 25.4813 98.8283 25.5796 99.1898 25.6505C99.5512 25.7224 99.9243 25.7891 100.31 25.8515C100.597 25.8949 100.897 25.9435 101.212 25.9953C101.526 26.0482 101.832 26.118 102.131 26.2058C102.43 26.2936 102.71 26.4015 102.971 26.5327C103.234 26.6638 103.459 26.832 103.649 27.0372C103.838 27.2424 103.982 27.4921 104.078 27.7851C104.174 28.0781 104.205 28.4239 104.167 28.8227C104.122 29.3273 103.966 29.7652 103.695 30.1354C103.425 30.5056 103.09 30.8123 102.691 31.0556C102.293 31.2989 101.856 31.4808 101.38 31.6014C100.904 31.7231 100.438 31.7844 99.9846 31.7844C99.5312 31.7844 99.0545 31.7284 98.5746 31.6162C98.0958 31.5041 97.6551 31.3285 97.2535 31.0884C96.8518 30.8494 96.5094 30.5458 96.2261 30.1777C95.9429 29.8107 95.7674 29.3706 95.6987 28.8608L96.8286 28.6831C96.8592 28.9264 96.9311 29.1443 97.0431 29.3368C97.1552 29.5304 97.2936 29.6996 97.4585 29.8456C97.6234 29.9915 97.8094 30.1185 98.0187 30.2242C98.228 30.33 98.4425 30.4157 98.6634 30.4813C98.8833 30.5469 99.1084 30.5945 99.3356 30.6262C99.5629 30.6579 99.7795 30.6727 99.9846 30.6727C100.284 30.6727 100.604 30.6389 100.946 30.5701C101.289 30.5014 101.61 30.3892 101.912 30.2338C102.215 30.0783 102.469 29.8784 102.679 29.6351C102.887 29.3918 103.006 29.0956 103.038 28.7476C103.075 28.4112 103.015 28.1394 102.856 27.9342C102.697 27.729 102.479 27.564 102.203 27.4392C101.926 27.3154 101.604 27.217 101.237 27.1451C100.87 27.0732 100.496 27.0002 100.117 26.9251C99.8366 26.8817 99.5459 26.8373 99.2437 26.7897C98.9414 26.7432 98.6423 26.6797 98.3474 26.5983C98.0525 26.5168 97.7714 26.4142 97.5071 26.2894C97.2429 26.1656 97.0114 26.0038 96.8117 25.8081C96.613 25.6114 96.4555 25.3755 96.3403 25.0984C96.2251 24.8212 96.1701 24.4923 96.1775 24.1125C96.1828 23.627 96.3012 23.2092 96.5316 22.8602C96.762 22.5111 97.0505 22.2245 97.3993 22.0002C97.7481 21.776 98.1371 21.6088 98.5662 21.4999C98.9953 21.3909 99.4159 21.3359 99.826 21.3359C100.224 21.3486 100.642 21.411 101.077 21.5232C101.513 21.6353 101.915 21.8035 102.281 22.0277C102.649 22.252 102.96 22.5344 103.215 22.8739C103.469 23.2135 103.623 23.6133 103.672 24.0745L102.598 24.1866L102.597 24.1876Z" fill="#3E97D3"/>
<path d="M115.414 28.6829L116.451 29.0849C116.289 29.49 116.07 29.857 115.793 30.1871C115.516 30.5171 115.197 30.8016 114.836 31.0375C114.475 31.2744 114.083 31.4574 113.66 31.5886C113.236 31.7187 112.804 31.7843 112.362 31.7843C111.653 31.7843 111.031 31.6341 110.5 31.3358C109.968 31.0364 109.521 30.6419 109.159 30.149C108.799 29.6571 108.528 29.0997 108.348 28.4767C108.167 27.8537 108.077 27.2148 108.077 26.5611C108.077 26.1253 108.117 25.6916 108.199 25.2622C108.279 24.8327 108.4 24.4244 108.558 24.0383C108.717 23.6523 108.916 23.2937 109.155 22.9637C109.395 22.6336 109.673 22.3491 109.991 22.109C110.308 21.8689 110.665 21.6806 111.06 21.5431C111.455 21.4056 111.889 21.3379 112.363 21.3379C113.06 21.3379 113.675 21.4765 114.206 21.7536C114.739 22.0307 115.182 22.3978 115.537 22.8558C115.892 23.3138 116.156 23.8405 116.331 24.435C116.505 25.0294 116.589 25.6419 116.583 26.2713V26.8509H109.226C109.25 27.3248 109.326 27.7902 109.451 28.2471C109.575 28.7051 109.764 29.1134 110.016 29.472C110.267 29.8306 110.586 30.1194 110.973 30.3404C111.359 30.5615 111.822 30.6715 112.364 30.6715C112.7 30.6715 113.026 30.6239 113.34 30.5266C113.654 30.4303 113.945 30.2949 114.213 30.1204C114.48 29.9459 114.719 29.7375 114.927 29.4942C115.135 29.2509 115.298 28.9802 115.418 28.6808L115.414 28.6829ZM115.461 25.7212C115.424 25.2727 115.327 24.8517 115.171 24.4593C115.016 24.0669 114.808 23.7231 114.546 23.427C114.284 23.1308 113.97 22.8981 113.603 22.7257C113.235 22.5543 112.822 22.4686 112.361 22.4686C111.876 22.4686 111.452 22.5585 111.09 22.7394C110.73 22.9203 110.424 23.1615 110.172 23.464C109.919 23.7665 109.721 24.1134 109.574 24.5059C109.428 24.8983 109.33 25.3034 109.28 25.7212H115.461Z" fill="#3E97D3"/>
<path d="M136.82 28.663C136.602 29.1432 136.328 29.5779 135.998 29.9672C135.669 30.3564 135.295 30.6875 134.878 30.9625C134.461 31.2365 134.009 31.448 133.524 31.5972C133.039 31.7474 132.532 31.8214 132.002 31.8214C131.374 31.8214 130.799 31.7284 130.279 31.5411C129.759 31.3539 129.291 31.0979 128.875 30.77C128.457 30.4432 128.094 30.055 127.783 29.6065C127.472 29.158 127.212 28.6725 127.003 28.1489C126.794 27.6253 126.638 27.0742 126.536 26.4956C126.433 25.916 126.381 25.3311 126.381 24.7387C126.381 24.1464 126.433 23.571 126.536 22.9913C126.638 22.4127 126.794 21.8606 127.003 21.337C127.211 20.8134 127.471 20.3268 127.783 19.8752C128.094 19.4235 128.458 19.0321 128.875 18.7021C129.291 18.3721 129.759 18.113 130.279 17.9268C130.799 17.7396 131.373 17.6465 132.002 17.6465C132.551 17.6465 133.069 17.7226 133.557 17.876C134.046 18.0283 134.495 18.2452 134.905 18.5255C135.317 18.8058 135.683 19.1411 136.008 19.5303C136.332 19.9196 136.602 20.3512 136.821 20.824L135.774 21.301C135.601 20.9213 135.387 20.5754 135.135 20.2634C134.882 19.9524 134.596 19.6858 134.276 19.4648C133.955 19.2437 133.603 19.0745 133.221 18.956C132.838 18.8375 132.432 18.7783 132.002 18.7783C131.25 18.7783 130.588 18.9496 130.018 19.2923C129.449 19.6351 128.974 20.0867 128.595 20.6473C128.215 21.2079 127.93 21.8447 127.739 22.5576C127.55 23.2716 127.455 23.9983 127.455 24.7398C127.468 25.4876 127.57 26.2175 127.764 26.9304C127.957 27.6444 128.242 28.279 128.618 28.8365C128.994 29.395 129.464 29.8434 130.028 30.1819C130.591 30.5225 131.25 30.6918 132.002 30.6918C132.42 30.6918 132.819 30.6346 133.202 30.5193C133.584 30.404 133.939 30.239 134.266 30.0243C134.593 29.8096 134.886 29.5494 135.148 29.2437C135.41 28.9391 135.631 28.5932 135.811 28.206L136.82 28.664V28.663Z" fill="#3E97D3"/>
<path d="M145.081 31.7843C144.296 31.7843 143.611 31.6341 143.026 31.3358C142.441 31.0364 141.952 30.6419 141.561 30.149C141.169 29.6571 140.876 29.0997 140.683 28.4767C140.489 27.8537 140.393 27.2148 140.393 26.5611C140.399 26.1253 140.446 25.6916 140.533 25.2622C140.619 24.8327 140.75 24.4244 140.925 24.0383C141.099 23.6523 141.316 23.2937 141.574 22.9637C141.833 22.6336 142.134 22.3491 142.479 22.109C142.824 21.8689 143.214 21.6806 143.646 21.5431C144.079 21.4056 144.556 21.3379 145.079 21.3379C145.603 21.3379 146.081 21.4066 146.517 21.5431C146.952 21.6806 147.344 21.8689 147.693 22.109C148.042 22.3491 148.346 22.6336 148.609 22.9637C148.87 23.2937 149.087 23.6523 149.262 24.0383C149.437 24.4244 149.567 24.8327 149.655 25.2622C149.742 25.6916 149.785 26.1253 149.785 26.5611C149.772 27.2148 149.667 27.8537 149.467 28.4767C149.268 29.0997 148.972 29.6571 148.58 30.149C148.187 30.6419 147.699 31.0375 147.113 31.3358C146.529 31.6351 145.85 31.7843 145.078 31.7843H145.081ZM145.081 22.4686C144.49 22.4686 143.973 22.586 143.531 22.8187C143.088 23.0525 142.718 23.3603 142.42 23.7432C142.121 24.1261 141.897 24.564 141.747 25.0559C141.598 25.5477 141.524 26.0502 141.524 26.5611C141.524 27.072 141.598 27.5733 141.747 28.0652C141.897 28.5581 142.121 28.996 142.42 29.3821C142.718 29.7682 143.088 30.0802 143.531 30.3161C143.973 30.553 144.49 30.6704 145.081 30.6704C145.671 30.6704 146.201 30.553 146.649 30.3161C147.097 30.0802 147.472 29.7682 147.774 29.3821C148.076 28.996 148.301 28.5571 148.451 28.0652C148.6 27.5733 148.675 27.072 148.675 26.5611C148.675 26.0502 148.6 25.5488 148.451 25.0559C148.301 24.564 148.076 24.1261 147.774 23.7432C147.472 23.3603 147.097 23.0515 146.649 22.8187C146.201 22.585 145.678 22.4686 145.081 22.4686Z" fill="#3E97D3"/>
<path d="M154.695 30.2715V31.5789H153.359V30.2715H154.695Z" fill="#3E97D3"/>
</g>
<defs>
<clipPath id="clip0_93_3448">
<rect width="167" height="50" fill="white" transform="translate(0 0.5)"/>
</clipPath>
</defs>
</svg>
